<?xml version="1.0" encoding="utf-8"?>
<!-- Generator: Adobe Illustrator 23.0.1, SVG Export Plug-In . SVG Version: 6.00 Build 0)  -->
<svg version="1.1" id="Layer_1" xmlns="http://www.w3.org/2000/svg" xmlns:xlink="http://www.w3.org/1999/xlink" x="0px" y="0px"
	 viewBox="0 0 406.3 53.3" style="enable-background:new 0 0 406.3 53.3;" xml:space="preserve">
<style type="text/css">
	.st0{fill:none;stroke:#FFFFFF;stroke-width:0.5939;}
	.st1{fill:#FFFFFF;}
	.st2{fill:#116A3E;}
	.st3{fill:#1B1E23;}
</style>
<g>
	<g>
		<path class="st0" d="M47.2,44.8c0,1.3-1,2.3-2.3,2.3H2.6c-1.3,0-2.3-1-2.3-2.3V2.6c0-1.3,1-2.3,2.3-2.3h42.2
			c1.3,0,2.3,1.1,2.3,2.3L47.2,44.8L47.2,44.8z"/>
		<path class="st1" d="M19.7,19c-0.4,0-0.8,0.4-0.8,0.8v11c0,0.4,0.2,1,0.6,1.3l11.4,11.4c0.3,0.3,0.9,0.6,1.3,0.6h11
			c0.4,0,0.8-0.4,0.8-0.8v-11c0-0.4-0.2-1-0.5-1.3L32,19.6c-0.3-0.3-0.9-0.6-1.3-0.6H19.7z"/>
		<path class="st1" d="M4.2,3.4c-0.4,0-0.8,0.3-0.8,0.8v39.1c0,0.4,0.2,0.5,0.5,0.2l11.3-11.4c0.3-0.3,0.5-0.9,0.5-1.3V16.7
			c0-0.4,0.4-0.8,0.8-0.8h14.1c0.4,0,1-0.2,1.3-0.5L43.4,4c0.3-0.3,0.2-0.5-0.2-0.5L4.2,3.4L4.2,3.4z"/>
	</g>
	<path class="st1" d="M68.9,17.4h19.8v5.2H75.1v6.5h11.8v4.8H75.1v11.6h-6.2V17.4L68.9,17.4z"/>
	<path class="st1" d="M94.8,35.4c0-3.3,1.1-6.5,4.9-6.5s5,3.3,5,6.5s-1.1,6.5-5,6.5C95.9,41.9,94.8,38.6,94.8,35.4z M101.1,22h5.3
		v-4.6h-5.3V22z M93,22h5.3v-4.6H93V22z M89.2,35.4c0,6.4,4.1,10.7,10.5,10.7s10.6-4.3,10.6-10.7c0-6.5-4.1-10.8-10.6-10.8
		C93.3,24.6,89.2,28.9,89.2,35.4z"/>
	<path class="st1" d="M112.4,25.2h5.3V29h0.1c1-2.6,3.8-4.3,6.5-4.3c0.4,0,0.9,0.1,1.2,0.2V30c-0.5-0.1-1.3-0.2-2-0.2
		c-4.1,0-5.5,2.9-5.5,6.5v9.2h-5.6V25.2L112.4,25.2z"/>
	<path class="st1" d="M131.7,38.9c0,2.4,2.1,3.4,4.3,3.4c1.6,0,3.7-0.6,3.7-2.6c0-1.7-2.3-2.3-6.3-3.1c-3.2-0.7-6.5-1.9-6.5-5.4
		c0-5.2,4.5-6.5,8.9-6.5c4.5,0,8.5,1.5,9,6.5h-5.3c-0.2-2.2-1.8-2.8-3.8-2.8c-1.3,0-3.1,0.2-3.1,1.9c0,2,3.2,2.3,6.3,3
		c3.3,0.8,6.5,1.9,6.5,5.7c0,5.3-4.6,7.1-9.3,7.1s-9.3-1.8-9.6-7.2L131.7,38.9L131.7,38.9z"/>
	<path class="st1" d="M160.4,37.7c0,1.2-0.2,4.7-4.5,4.7c-1.8,0-3.4-0.5-3.4-2.6c0-2,1.6-2.6,3.3-3c1.7-0.3,3.7-0.4,4.6-1.2
		L160.4,37.7L160.4,37.7z M158.4,22h5.3v-4.6h-5.3V22z M150.2,22h5.3v-4.6h-5.3V22z M153.1,31.5c0.2-2.2,1.6-3.1,3.7-3.1
		c2,0,3.6,0.4,3.6,2.8c0,2.3-3.2,2.2-6.6,2.7c-3.5,0.5-6.9,1.6-6.9,6.2c0,4.2,3.1,6.1,6.9,6.1c2.5,0,5.1-0.7,6.9-2.5
		c0,0.7,0.2,1.4,0.4,2h5.7c-0.5-0.8-0.7-2.7-0.7-4.5V30.4c0-4.9-4.9-5.8-8.9-5.8c-4.6,0-9.3,1.6-9.6,6.8h5.5V31.5z"/>
	<path class="st1" d="M169.4,17.4h5.6v15.1l7-7.3h6.6l-7.7,7.5l8.6,12.9h-6.8l-5.6-9.1l-2.2,2.1v7h-5.6L169.4,17.4L169.4,17.4z"/>
	<path class="st1" d="M191.5,25.2h5.3V29h0.1c1-2.6,3.8-4.3,6.5-4.3c0.4,0,0.9,0.1,1.2,0.2V30c-0.5-0.1-1.3-0.2-2-0.2
		c-4.1,0-5.5,2.9-5.5,6.5v9.2h-5.6V25.2L191.5,25.2z"/>
	<path class="st1" d="M207,25.2h5.6v20.3H207V25.2z M212.6,22H207v-4.6h5.6V22z"/>
	<path class="st1" d="M216.2,25.2h5.3V28h0.1c1.4-2.3,3.9-3.4,6.2-3.4c5.9,0,7.4,3.3,7.4,8.4v12.5h-5.6V34c0-3.3-1-5-3.6-5
		c-3,0-4.3,1.7-4.3,5.8v10.7h-5.6L216.2,25.2L216.2,25.2z"/>
	<path class="st1" d="M248,40.7c-3.4,0-4.5-3.2-4.5-6.1c0-3,1.4-5.8,4.5-5.8c3.6,0,4.8,3,4.8,6.3C252.7,38,251.2,40.7,248,40.7z
		 M258.1,25.2h-5.3v2.7h-0.1c-1.3-2.4-3.4-3.3-6.1-3.3c-5.7,0-8.8,4.8-8.8,10.1c0,5.6,2.6,10.2,8.7,10.2c2.4,0,4.9-1,6.1-3.1h0.1
		v2.7c0,2.9-1.4,5-4.5,5c-2,0-3.7-0.7-4.2-2.8h-5.5c0.3,4.6,4.9,6.5,9,6.5c9.4,0,10.6-5.7,10.6-9V25.2L258.1,25.2z"/>
	<path class="st1" d="M265.4,38.9c0,2.4,2.1,3.4,4.3,3.4c1.6,0,3.7-0.6,3.7-2.6c0-1.7-2.3-2.3-6.3-3.1c-3.2-0.7-6.5-1.9-6.5-5.4
		c0-5.2,4.5-6.5,8.9-6.5c4.5,0,8.5,1.5,9,6.5h-5.3c-0.1-2.2-1.8-2.8-3.8-2.8c-1.2,0-3.1,0.2-3.1,1.9c0,2,3.1,2.3,6.3,3
		c3.3,0.8,6.5,1.9,6.5,5.7c0,5.3-4.6,7.1-9.3,7.1c-4.7,0-9.3-1.8-9.6-7.2L265.4,38.9L265.4,38.9z"/>
	<path class="st1" d="M281.3,17.4h5.6v15.1l7-7.3h6.6l-7.7,7.5l8.5,12.9h-6.8l-5.6-9.1l-2.2,2.1v7h-5.6L281.3,17.4L281.3,17.4z"/>
	<path class="st1" d="M315.3,37.7c0,1.2-0.2,4.7-4.5,4.7c-1.8,0-3.4-0.5-3.4-2.6c0-2,1.6-2.6,3.3-3c1.7-0.3,3.7-0.4,4.7-1.2
		L315.3,37.7L315.3,37.7z M308,31.5c0.2-2.2,1.6-3.1,3.7-3.1c2,0,3.6,0.4,3.6,2.8c0,2.3-3.2,2.2-6.6,2.7c-3.5,0.5-6.9,1.6-6.9,6.2
		c0,4.2,3.1,6.1,6.9,6.1c2.5,0,5.1-0.7,6.9-2.5c0,0.7,0.2,1.4,0.4,2h5.7c-0.5-0.8-0.7-2.7-0.7-4.5V30.4c0-4.9-4.9-5.8-8.9-5.8
		c-4.6,0-9.3,1.6-9.6,6.8h5.5V31.5z"/>
	<path class="st1" d="M328.8,38.9c0,2.4,2.1,3.4,4.3,3.4c1.6,0,3.7-0.6,3.7-2.6c0-1.7-2.3-2.3-6.3-3.1c-3.2-0.7-6.5-1.9-6.5-5.4
		c0-5.2,4.5-6.5,8.9-6.5s8.5,1.5,9,6.5h-5.3c-0.1-2.2-1.8-2.8-3.8-2.8c-1.3,0-3.1,0.2-3.1,1.9c0,2,3.2,2.3,6.3,3
		c3.3,0.8,6.5,1.9,6.5,5.7c0,5.3-4.6,7.1-9.3,7.1c-4.7,0-9.3-1.8-9.6-7.2L328.8,38.9L328.8,38.9z"/>
	<path class="st1" d="M349.2,38.9c0,2.4,2.1,3.4,4.3,3.4c1.6,0,3.7-0.6,3.7-2.6c0-1.7-2.3-2.3-6.3-3.1c-3.2-0.7-6.4-1.9-6.4-5.4
		c0-5.2,4.5-6.5,8.8-6.5c4.5,0,8.6,1.5,9,6.5H357c-0.1-2.2-1.8-2.8-3.8-2.8c-1.3,0-3.1,0.2-3.1,1.9c0,2,3.1,2.3,6.3,3
		c3.2,0.8,6.4,1.9,6.4,5.7c0,5.3-4.6,7.1-9.3,7.1c-4.7,0-9.3-1.8-9.6-7.2L349.2,38.9L349.2,38.9z"/>
	<path class="st1" d="M378,37.7c0,1.2-0.2,4.7-4.5,4.7c-1.8,0-3.4-0.5-3.4-2.6c0-2,1.6-2.6,3.3-3c1.7-0.3,3.7-0.4,4.6-1.2V37.7
		L378,37.7z M370.7,31.5c0.2-2.2,1.6-3.1,3.7-3.1c2,0,3.6,0.4,3.6,2.8c0,2.3-3.2,2.2-6.6,2.7c-3.5,0.5-6.9,1.6-6.9,6.2
		c0,4.2,3.1,6.1,6.9,6.1c2.5,0,5.1-0.7,6.9-2.5c0,0.7,0.2,1.4,0.4,2h5.7c-0.5-0.8-0.7-2.7-0.7-4.5V30.4c0-4.9-4.9-5.8-8.9-5.8
		c-4.6,0-9.3,1.6-9.6,6.8h5.5V31.5z"/>
	<path class="st1" d="M387.2,25.2h5.3V28h0.1c1.4-2.3,3.9-3.4,6.2-3.4c5.9,0,7.4,3.3,7.4,8.4v12.5h-5.6V34c0-3.3-1-5-3.6-5
		c-3,0-4.3,1.7-4.3,5.8v10.7h-5.6L387.2,25.2L387.2,25.2z"/>
</g>
<g>
	<path class="st2" d="M47.2,44.8c0,1.3-1,2.3-2.3,2.3H2.6c-1.3,0-2.3-1-2.3-2.3V2.6c0-1.3,1-2.3,2.3-2.3h42.2c1.3,0,2.3,1.1,2.3,2.3
		L47.2,44.8L47.2,44.8z"/>
	<path class="st1" d="M19.7,19c-0.4,0-0.8,0.4-0.8,0.8v11c0,0.4,0.2,1,0.6,1.3l11.4,11.4c0.3,0.3,0.9,0.6,1.3,0.6h11
		c0.4,0,0.8-0.4,0.8-0.8v-11c0-0.4-0.2-1-0.5-1.3L32,19.6c-0.3-0.3-0.9-0.6-1.3-0.6H19.7z"/>
	<path class="st1" d="M4.2,3.4c-0.4,0-0.8,0.3-0.8,0.8v39.1c0,0.4,0.2,0.5,0.5,0.2l11.3-11.4c0.3-0.3,0.5-0.9,0.5-1.3V16.7
		c0-0.4,0.4-0.8,0.8-0.8h14.1c0.4,0,1-0.2,1.3-0.5L43.4,4c0.3-0.3,0.2-0.5-0.2-0.5L4.2,3.4L4.2,3.4z"/>
</g>
<path class="st3" d="M68.9,17.4h19.8v5.2H75.1v6.5h11.8v4.8H75.1v11.6h-6.2V17.4L68.9,17.4z"/>
<path class="st3" d="M94.8,35.4c0-3.3,1.1-6.5,4.9-6.5s5,3.3,5,6.5s-1.1,6.5-5,6.5C95.9,41.9,94.8,38.6,94.8,35.4z M101.1,22h5.3
	v-4.6h-5.3V22z M93,22h5.3v-4.6H93V22z M89.2,35.4c0,6.4,4.1,10.7,10.5,10.7s10.6-4.3,10.6-10.7c0-6.5-4.1-10.8-10.6-10.8
	C93.3,24.6,89.2,28.9,89.2,35.4z"/>
<path class="st3" d="M112.4,25.2h5.3V29h0.1c1-2.6,3.8-4.3,6.5-4.3c0.4,0,0.9,0.1,1.2,0.2V30c-0.5-0.1-1.3-0.2-2-0.2
	c-4.1,0-5.5,2.9-5.5,6.5v9.2h-5.6V25.2L112.4,25.2z"/>
<path class="st3" d="M131.7,38.9c0,2.4,2.1,3.4,4.3,3.4c1.6,0,3.7-0.6,3.7-2.6c0-1.7-2.3-2.3-6.3-3.1c-3.2-0.7-6.5-1.9-6.5-5.4
	c0-5.2,4.5-6.5,8.9-6.5c4.5,0,8.5,1.5,9,6.5h-5.3c-0.2-2.2-1.8-2.8-3.8-2.8c-1.3,0-3.1,0.2-3.1,1.9c0,2,3.2,2.3,6.3,3
	c3.3,0.8,6.5,1.9,6.5,5.7c0,5.3-4.6,7.1-9.3,7.1s-9.3-1.8-9.6-7.2L131.7,38.9L131.7,38.9z"/>
<path class="st3" d="M160.4,37.7c0,1.2-0.2,4.7-4.5,4.7c-1.8,0-3.4-0.5-3.4-2.6c0-2,1.6-2.6,3.3-3c1.7-0.3,3.7-0.4,4.6-1.2
	L160.4,37.7L160.4,37.7z M158.4,22h5.3v-4.6h-5.3V22z M150.2,22h5.3v-4.6h-5.3V22z M153.1,31.5c0.2-2.2,1.6-3.1,3.7-3.1
	c2,0,3.6,0.4,3.6,2.8c0,2.3-3.2,2.2-6.6,2.7c-3.5,0.5-6.9,1.6-6.9,6.2c0,4.2,3.1,6.1,6.9,6.1c2.5,0,5.1-0.7,6.9-2.5
	c0,0.7,0.2,1.4,0.4,2h5.7c-0.5-0.8-0.7-2.7-0.7-4.5V30.4c0-4.9-4.9-5.8-8.9-5.8c-4.6,0-9.3,1.6-9.6,6.8h5.5V31.5z"/>
<path class="st3" d="M169.4,17.4h5.6v15.1l7-7.3h6.6l-7.7,7.5l8.6,12.9h-6.8l-5.6-9.1l-2.2,2.1v7h-5.6L169.4,17.4L169.4,17.4z"/>
<path class="st3" d="M191.5,25.2h5.3V29h0.1c1-2.6,3.8-4.3,6.5-4.3c0.4,0,0.9,0.1,1.2,0.2V30c-0.5-0.1-1.3-0.2-2-0.2
	c-4.1,0-5.5,2.9-5.5,6.5v9.2h-5.6V25.2L191.5,25.2z"/>
<path class="st3" d="M207,25.2h5.6v20.3H207V25.2z M212.6,22H207v-4.6h5.6V22z"/>
<path class="st3" d="M216.2,25.2h5.3V28h0.1c1.4-2.3,3.9-3.4,6.2-3.4c5.9,0,7.4,3.3,7.4,8.4v12.5h-5.6V34c0-3.3-1-5-3.6-5
	c-3,0-4.3,1.7-4.3,5.8v10.7h-5.6L216.2,25.2L216.2,25.2z"/>
<path class="st3" d="M248,40.7c-3.4,0-4.5-3.2-4.5-6.1c0-3,1.4-5.8,4.5-5.8c3.6,0,4.8,3,4.8,6.3C252.7,38,251.2,40.7,248,40.7z
	 M258.1,25.2h-5.3v2.7h-0.1c-1.3-2.4-3.4-3.3-6.1-3.3c-5.7,0-8.8,4.8-8.8,10.1c0,5.6,2.6,10.2,8.7,10.2c2.4,0,4.9-1,6.1-3.1h0.1v2.7
	c0,2.9-1.4,5-4.5,5c-2,0-3.7-0.7-4.2-2.8h-5.5c0.3,4.6,4.9,6.5,9,6.5c9.4,0,10.6-5.7,10.6-9V25.2L258.1,25.2z"/>
<path class="st3" d="M265.4,38.9c0,2.4,2.1,3.4,4.3,3.4c1.6,0,3.7-0.6,3.7-2.6c0-1.7-2.3-2.3-6.3-3.1c-3.2-0.7-6.5-1.9-6.5-5.4
	c0-5.2,4.5-6.5,8.9-6.5c4.5,0,8.5,1.5,9,6.5h-5.3c-0.1-2.2-1.8-2.8-3.8-2.8c-1.2,0-3.1,0.2-3.1,1.9c0,2,3.1,2.3,6.3,3
	c3.3,0.8,6.5,1.9,6.5,5.7c0,5.3-4.6,7.1-9.3,7.1c-4.7,0-9.3-1.8-9.6-7.2L265.4,38.9L265.4,38.9z"/>
<path class="st3" d="M281.3,17.4h5.6v15.1l7-7.3h6.6l-7.7,7.5l8.5,12.9h-6.8l-5.6-9.1l-2.2,2.1v7h-5.6L281.3,17.4L281.3,17.4z"/>
<path class="st3" d="M315.3,37.7c0,1.2-0.2,4.7-4.5,4.7c-1.8,0-3.4-0.5-3.4-2.6c0-2,1.6-2.6,3.3-3c1.7-0.3,3.7-0.4,4.7-1.2
	L315.3,37.7L315.3,37.7z M308,31.5c0.2-2.2,1.6-3.1,3.7-3.1c2,0,3.6,0.4,3.6,2.8c0,2.3-3.2,2.2-6.6,2.7c-3.5,0.5-6.9,1.6-6.9,6.2
	c0,4.2,3.1,6.1,6.9,6.1c2.5,0,5.1-0.7,6.9-2.5c0,0.7,0.2,1.4,0.4,2h5.7c-0.5-0.8-0.7-2.7-0.7-4.5V30.4c0-4.9-4.9-5.8-8.9-5.8
	c-4.6,0-9.3,1.6-9.6,6.8h5.5V31.5z"/>
<path class="st3" d="M328.8,38.9c0,2.4,2.1,3.4,4.3,3.4c1.6,0,3.7-0.6,3.7-2.6c0-1.7-2.3-2.3-6.3-3.1c-3.2-0.7-6.5-1.9-6.5-5.4
	c0-5.2,4.5-6.5,8.9-6.5s8.5,1.5,9,6.5h-5.3c-0.1-2.2-1.8-2.8-3.8-2.8c-1.3,0-3.1,0.2-3.1,1.9c0,2,3.2,2.3,6.3,3
	c3.3,0.8,6.5,1.9,6.5,5.7c0,5.3-4.6,7.1-9.3,7.1c-4.7,0-9.3-1.8-9.6-7.2L328.8,38.9L328.8,38.9z"/>
<path class="st3" d="M349.2,38.9c0,2.4,2.1,3.4,4.3,3.4c1.6,0,3.7-0.6,3.7-2.6c0-1.7-2.3-2.3-6.3-3.1c-3.2-0.7-6.4-1.9-6.4-5.4
	c0-5.2,4.5-6.5,8.8-6.5c4.5,0,8.6,1.5,9,6.5H357c-0.1-2.2-1.8-2.8-3.8-2.8c-1.3,0-3.1,0.2-3.1,1.9c0,2,3.1,2.3,6.3,3
	c3.2,0.8,6.4,1.9,6.4,5.7c0,5.3-4.6,7.1-9.3,7.1c-4.7,0-9.3-1.8-9.6-7.2L349.2,38.9L349.2,38.9z"/>
<path class="st3" d="M378,37.7c0,1.2-0.2,4.7-4.5,4.7c-1.8,0-3.4-0.5-3.4-2.6c0-2,1.6-2.6,3.3-3c1.7-0.3,3.7-0.4,4.6-1.2V37.7
	L378,37.7z M370.7,31.5c0.2-2.2,1.6-3.1,3.7-3.1c2,0,3.6,0.4,3.6,2.8c0,2.3-3.2,2.2-6.6,2.7c-3.5,0.5-6.9,1.6-6.9,6.2
	c0,4.2,3.1,6.1,6.9,6.1c2.5,0,5.1-0.7,6.9-2.5c0,0.7,0.2,1.4,0.4,2h5.7c-0.5-0.8-0.7-2.7-0.7-4.5V30.4c0-4.9-4.9-5.8-8.9-5.8
	c-4.6,0-9.3,1.6-9.6,6.8h5.5V31.5z"/>
<path class="st3" d="M387.2,25.2h5.3V28h0.1c1.4-2.3,3.9-3.4,6.2-3.4c5.9,0,7.4,3.3,7.4,8.4v12.5h-5.6V34c0-3.3-1-5-3.6-5
	c-3,0-4.3,1.7-4.3,5.8v10.7h-5.6L387.2,25.2L387.2,25.2z"/>
</svg>
