<svg width="249" height="34" viewBox="0 0 249 34" fill="none" xmlns="http://www.w3.org/2000/svg">
<path d="M11.4651 12.4651C11.4651 11.9128 11.9128 11.4651 12.4651 11.4651H18.9736C19.2295 11.4651 19.4756 11.5632 19.6613 11.7391L26.9668 18.6603C27.1661 18.8491 27.279 19.1116 27.279 19.3862V26.279C27.279 26.8313 26.8313 27.279 26.279 27.279H19.7863C19.5211 27.279 19.2667 27.1737 19.0792 26.9861L11.758 19.665C11.5704 19.4774 11.4651 19.2231 11.4651 18.9578V12.4651Z" fill="white"/>
<rect x="0.5" y="0.5" width="28.2558" height="28.2558" rx="1.5" stroke="white"/>
<path d="M1.97681 2.97681C1.97681 2.42452 2.42452 1.97681 2.97681 1.97681H27.2791L19.8599 9.27829C19.6728 9.46238 19.4209 9.56555 19.1585 9.56555H10.7718C10.2195 9.56555 9.77179 10.0133 9.77179 10.5655V18.4157C9.77179 18.6841 9.6639 18.9412 9.47237 19.1293L1.97681 26.4884V2.97681Z" fill="white"/>
<path d="M41.7703 10.6143H54.2902V13.9391H45.6684V17.6538H52.8685V20.8411H45.6684V27.6743H41.7703V10.6143Z" fill="white"/>
<path d="M61.0021 28.0642C60.0238 28.0642 59.1371 27.9036 58.3422 27.5826C57.5473 27.2463 56.8671 26.7877 56.3014 26.2068C55.7358 25.6259 55.3002 24.9456 54.9944 24.166C54.6887 23.3711 54.5358 22.515 54.5358 21.5978C54.5358 20.6806 54.6887 19.8322 54.9944 19.0526C55.3002 18.2577 55.7358 17.5698 56.3014 16.9889C56.8671 16.408 57.5473 15.957 58.3422 15.636C59.1371 15.2997 60.0238 15.1315 61.0021 15.1315C61.9652 15.1315 62.8442 15.2997 63.6391 15.636C64.434 15.957 65.1066 16.408 65.657 16.9889C66.2226 17.5698 66.6583 18.2577 66.964 19.0526C67.2697 19.8322 67.4226 20.6806 67.4226 21.5978C67.4226 22.515 67.2697 23.3711 66.964 24.166C66.6583 24.9456 66.2226 25.6259 65.657 26.2068C65.1066 26.7877 64.434 27.2463 63.6391 27.5826C62.8442 27.9036 61.9652 28.0642 61.0021 28.0642ZM60.9792 25.4501C61.8811 25.4501 62.569 25.0985 63.0429 24.3953C63.5321 23.6768 63.7767 22.7443 63.7767 21.5978C63.7767 20.436 63.5321 19.4959 63.0429 18.7774C62.569 18.0589 61.8811 17.6997 60.9792 17.6997C60.062 17.6997 59.3664 18.0589 58.8926 18.7774C58.4187 19.4959 58.1817 20.436 58.1817 21.5978C58.1817 22.7443 58.4187 23.6768 58.8926 24.3953C59.3664 25.0985 60.062 25.4501 60.9792 25.4501ZM62.0799 10.6143H65.4735V13.7557H62.0799V10.6143ZM56.5078 10.6143H59.9244V13.7557H56.5078V10.6143Z" fill="white"/>
<path d="M72.5433 17.6538H72.612C73.0095 16.7978 73.4834 16.1863 74.0337 15.8194C74.584 15.4525 75.2414 15.2691 76.0057 15.2691C76.3726 15.2691 76.6248 15.2997 76.7624 15.3608V18.5023H76.6707C76.4108 18.4564 76.1586 18.4335 75.914 18.4335C74.9356 18.4182 74.1484 18.7163 73.5522 19.3277C72.9713 19.9239 72.6808 20.8182 72.6808 22.0106V27.6743H69.0808V15.4755H72.5433V17.6538Z" fill="white"/>
<path d="M83.3952 28.0642C82.5086 28.0642 81.7137 27.9648 81.0105 27.7661C80.3073 27.5673 79.7034 27.2845 79.199 26.9176C78.7098 26.5508 78.32 26.1151 78.0295 25.6106C77.7544 25.0909 77.5939 24.5253 77.548 23.9138H80.9417C81.0487 24.4947 81.3086 24.938 81.7213 25.2437C82.1493 25.5495 82.7149 25.7023 83.4181 25.7023C84.0602 25.7023 84.557 25.5801 84.9086 25.3355C85.2602 25.0909 85.436 24.7469 85.436 24.3036C85.436 24.0284 85.3519 23.8068 85.1838 23.6386C85.0156 23.4705 84.7863 23.3329 84.4959 23.2259C84.2054 23.1189 83.8691 23.0348 83.4869 22.9736C83.12 22.8972 82.7226 22.8208 82.2946 22.7443C81.7442 22.6373 81.2092 22.515 80.6894 22.3775C80.1697 22.2399 79.7034 22.0335 79.2907 21.7583C78.878 21.4832 78.5416 21.1239 78.2818 20.6806C78.0372 20.2373 77.9149 19.6564 77.9149 18.9379C77.9149 18.3112 78.0448 17.7608 78.3047 17.287C78.5799 16.8131 78.9467 16.4156 79.4053 16.0946C79.8639 15.7736 80.4066 15.5366 81.0334 15.3837C81.6602 15.2156 82.3328 15.1315 83.0513 15.1315C84.7481 15.1315 86.0322 15.4678 86.9035 16.1404C87.7749 16.7978 88.2946 17.6615 88.4628 18.7316H85.115C84.8857 17.8602 84.1978 17.4245 83.0513 17.4245C82.5009 17.4245 82.0576 17.5315 81.7213 17.7456C81.4003 17.9596 81.2398 18.2653 81.2398 18.6628C81.2398 18.8921 81.3162 19.0832 81.4691 19.236C81.6219 19.3736 81.8359 19.4883 82.1111 19.58C82.3863 19.6717 82.7073 19.7481 83.0742 19.8093C83.4411 19.8704 83.8309 19.9392 84.2436 20.0156C84.7939 20.1074 85.3443 20.2297 85.8946 20.3825C86.4449 20.5201 86.9417 20.7341 87.3851 21.0246C87.8284 21.315 88.1876 21.7048 88.4628 22.194C88.7532 22.6679 88.8985 23.287 88.8985 24.0514C88.8985 24.7087 88.7609 25.2896 88.4857 25.7941C88.2106 26.2985 87.8284 26.7189 87.3392 27.0552C86.85 27.3915 86.2691 27.6438 85.5965 27.8119C84.9239 27.9801 84.1901 28.0642 83.3952 28.0642Z" fill="white"/>
<path d="M98.3495 27.6743C98.2578 27.5368 98.1737 27.3457 98.0973 27.1011C98.0208 26.8412 97.9673 26.5355 97.9368 26.1839H97.8909C97.4935 26.7495 97.0119 27.1928 96.4463 27.5138C95.896 27.8349 95.1469 27.9954 94.1991 27.9954C93.603 27.9954 93.045 27.9113 92.5252 27.7431C92.0208 27.5903 91.5775 27.361 91.1953 27.0552C90.8284 26.7495 90.538 26.3673 90.3239 25.9087C90.1252 25.4348 90.0258 24.8998 90.0258 24.3036C90.0258 23.631 90.1481 23.073 90.3927 22.6297C90.6526 22.1864 90.9966 21.8271 91.4246 21.552C91.8526 21.2768 92.3571 21.0704 92.938 20.9329C93.5189 20.78 94.1456 20.6653 94.8183 20.5889C95.9036 20.436 96.6833 20.2526 97.1571 20.0386C97.6463 19.8246 97.8909 19.4883 97.8909 19.0296C97.8909 18.5863 97.7457 18.2347 97.4552 17.9749C97.1648 17.6997 96.7062 17.5621 96.0794 17.5621C95.3915 17.5621 94.8718 17.7073 94.5202 17.9978C94.1839 18.2882 93.9928 18.6781 93.9469 19.1672H90.622C90.6373 18.6475 90.7596 18.143 90.9889 17.6538C91.2182 17.1647 91.5545 16.7366 91.9978 16.3697C92.4412 15.9876 92.9991 15.6895 93.6717 15.4755C94.3444 15.2462 95.1316 15.1315 96.0336 15.1315C96.8132 15.1315 97.4858 15.1927 98.0514 15.315C98.617 15.422 99.1139 15.6054 99.5419 15.8653C100.184 16.2322 100.65 16.729 100.941 17.3557C101.246 17.9672 101.399 18.6857 101.399 19.5112V25.7711C101.399 26.7036 101.552 27.2692 101.858 27.468V27.6743H98.3495ZM95.3227 25.6336C96.1329 25.6336 96.775 25.4119 97.2489 24.9686C97.738 24.5253 97.9826 23.9673 97.9826 23.2947V21.7125C97.7228 21.8806 97.4017 22.0182 97.0196 22.1252C96.6527 22.217 96.2705 22.3087 95.8731 22.4004C95.0781 22.5685 94.4896 22.7749 94.1074 23.0195C93.7253 23.2641 93.5342 23.6539 93.5342 24.189C93.5342 24.724 93.71 25.0985 94.0616 25.3125C94.4132 25.5265 94.8335 25.6336 95.3227 25.6336ZM91.5851 10.6143H95.0017V13.7557H91.5851V10.6143ZM97.1571 10.6143H100.551V13.7557H97.1571V10.6143Z" fill="white"/>
<path d="M108.443 22.3545L107.228 23.6157V27.6743H103.673V10.6143H107.228V15.9341C107.228 16.836 107.212 17.6156 107.182 18.273C107.167 18.9303 107.144 19.4577 107.113 19.8551L111.126 15.4755H115.299L110.942 19.9927L115.804 27.6743H111.63L108.443 22.3545Z" fill="white"/>
<path d="M120.503 17.6538H120.572C120.969 16.7978 121.443 16.1863 121.994 15.8194C122.544 15.4525 123.201 15.2691 123.966 15.2691C124.332 15.2691 124.585 15.2997 124.722 15.3608V18.5023H124.631C124.371 18.4564 124.118 18.4335 123.874 18.4335C122.895 18.4182 122.108 18.7163 121.512 19.3277C120.931 19.9239 120.641 20.8182 120.641 22.0106V27.6743H117.041V15.4755H120.503V17.6538Z" fill="white"/>
<path d="M126.265 10.6143H129.91V13.7557H126.265V10.6143ZM126.287 15.4755H129.887V27.6743H126.287V15.4755Z" fill="white"/>
<path d="M135.594 17.3328H135.662C136.045 16.599 136.549 16.0487 137.176 15.6818C137.818 15.315 138.567 15.1315 139.423 15.1315C140.768 15.1315 141.808 15.5443 142.541 16.3697C143.29 17.1799 143.665 18.273 143.665 19.6488V27.6743H140.088V20.3367C140.088 19.6641 139.912 19.129 139.561 18.7316C139.224 18.3188 138.72 18.1124 138.047 18.1124C137.344 18.1124 136.778 18.3647 136.35 18.8691C135.922 19.3736 135.708 20.0156 135.708 20.7953V27.6743H132.108V15.4755H135.594V17.3328Z" fill="white"/>
<path d="M151.453 31.9164C149.771 31.9164 148.418 31.5801 147.394 30.9075C146.37 30.2502 145.766 29.3177 145.582 28.11H149.091C149.213 28.4769 149.45 28.775 149.802 29.0043C150.168 29.2336 150.704 29.3483 151.407 29.3483C152.263 29.3483 152.897 29.1419 153.31 28.7291C153.738 28.3164 153.952 27.7355 153.952 26.9864V26.7342C153.952 26.0769 153.975 25.5418 154.021 25.1291H153.929C153.211 26.3215 152.11 26.9176 150.627 26.9176C149.924 26.9176 149.251 26.7954 148.609 26.5508C147.967 26.2909 147.402 25.9164 146.912 25.4272C146.423 24.9227 146.033 24.3112 145.743 23.5928C145.452 22.8743 145.307 22.0564 145.307 21.1392C145.307 20.2526 145.43 19.4424 145.674 18.7086C145.934 17.9596 146.293 17.3252 146.752 16.8054C147.21 16.2704 147.753 15.8576 148.38 15.5672C149.007 15.2767 149.695 15.1315 150.444 15.1315C151.269 15.1315 151.972 15.2767 152.553 15.5672C153.134 15.8576 153.6 16.3468 153.952 17.0347H153.998V15.4755H157.437V26.5966C157.437 27.5138 157.292 28.2935 157.002 28.9355C156.727 29.5928 156.344 30.1432 155.855 30.5865C155.32 31.0451 154.678 31.3814 153.929 31.5954C153.18 31.8094 152.354 31.9164 151.453 31.9164ZM151.43 24.2119C151.888 24.2119 152.278 24.1354 152.599 23.9826C152.935 23.8144 153.211 23.5851 153.425 23.2947C153.654 23.0042 153.814 22.6679 153.906 22.2857C154.013 21.9036 154.067 21.4832 154.067 21.0246C154.067 20.1227 153.845 19.3736 153.402 18.7774C152.958 18.1659 152.293 17.8602 151.407 17.8602C150.612 17.8602 149.985 18.1507 149.526 18.7316C149.068 19.2972 148.839 20.0692 148.839 21.0475C148.839 22.0106 149.068 22.7826 149.526 23.3635C149.985 23.9291 150.619 24.2119 151.43 24.2119Z" fill="white"/>
<path d="M164.761 28.0642C163.874 28.0642 163.079 27.9648 162.376 27.7661C161.673 27.5673 161.069 27.2845 160.565 26.9176C160.076 26.5508 159.686 26.1151 159.395 25.6106C159.12 25.0909 158.96 24.5253 158.914 23.9138H162.307C162.414 24.4947 162.674 24.938 163.087 25.2437C163.515 25.5495 164.081 25.7023 164.784 25.7023C165.426 25.7023 165.923 25.5801 166.274 25.3355C166.626 25.0909 166.802 24.7469 166.802 24.3036C166.802 24.0284 166.718 23.8068 166.549 23.6386C166.381 23.4705 166.152 23.3329 165.862 23.2259C165.571 23.1189 165.235 23.0348 164.853 22.9736C164.486 22.8972 164.088 22.8208 163.66 22.7443C163.11 22.6373 162.575 22.515 162.055 22.3775C161.535 22.2399 161.069 22.0335 160.656 21.7583C160.244 21.4832 159.907 21.1239 159.647 20.6806C159.403 20.2373 159.281 19.6564 159.281 18.9379C159.281 18.3112 159.411 17.7608 159.67 17.287C159.946 16.8131 160.312 16.4156 160.771 16.0946C161.23 15.7736 161.772 15.5366 162.399 15.3837C163.026 15.2156 163.698 15.1315 164.417 15.1315C166.114 15.1315 167.398 15.4678 168.269 16.1404C169.141 16.7978 169.66 17.6615 169.828 18.7316H166.481C166.251 17.8602 165.563 17.4245 164.417 17.4245C163.867 17.4245 163.423 17.5315 163.087 17.7456C162.766 17.9596 162.605 18.2653 162.605 18.6628C162.605 18.8921 162.682 19.0832 162.835 19.236C162.988 19.3736 163.202 19.4883 163.477 19.58C163.752 19.6717 164.073 19.7481 164.44 19.8093C164.807 19.8704 165.197 19.9392 165.609 20.0156C166.16 20.1074 166.71 20.2297 167.26 20.3825C167.811 20.5201 168.307 20.7341 168.751 21.0246C169.194 21.315 169.553 21.7048 169.828 22.194C170.119 22.6679 170.264 23.287 170.264 24.0514C170.264 24.7087 170.127 25.2896 169.851 25.7941C169.576 26.2985 169.194 26.7189 168.705 27.0552C168.216 27.3915 167.635 27.6438 166.962 27.8119C166.29 27.9801 165.556 28.0642 164.761 28.0642Z" fill="white"/>
<path d="M176.665 22.3545L175.45 23.6157V27.6743H171.896V10.6143H175.45V15.9341C175.45 16.836 175.435 17.6156 175.404 18.273C175.389 18.9303 175.366 19.4577 175.336 19.8551L179.348 15.4755H183.522L179.165 19.9927L184.026 27.6743H179.853L176.665 22.3545Z" fill="white"/>
<path d="M192.634 27.6743C192.543 27.5368 192.459 27.3457 192.382 27.1011C192.306 26.8412 192.252 26.5355 192.222 26.1839H192.176C191.778 26.7495 191.297 27.1928 190.731 27.5138C190.181 27.8349 189.432 27.9954 188.484 27.9954C187.888 27.9954 187.33 27.9113 186.81 27.7431C186.306 27.5903 185.862 27.361 185.48 27.0552C185.113 26.7495 184.823 26.3673 184.609 25.9087C184.41 25.4348 184.311 24.8998 184.311 24.3036C184.311 23.631 184.433 23.073 184.678 22.6297C184.938 22.1864 185.282 21.8271 185.71 21.552C186.138 21.2768 186.642 21.0704 187.223 20.9329C187.804 20.78 188.431 20.6653 189.103 20.5889C190.189 20.436 190.968 20.2526 191.442 20.0386C191.931 19.8246 192.176 19.4883 192.176 19.0296C192.176 18.5863 192.031 18.2347 191.74 17.9749C191.45 17.6997 190.991 17.5621 190.364 17.5621C189.676 17.5621 189.157 17.7073 188.805 17.9978C188.469 18.2882 188.278 18.6781 188.232 19.1672H184.907C184.922 18.6475 185.045 18.143 185.274 17.6538C185.503 17.1647 185.839 16.7366 186.283 16.3697C186.726 15.9876 187.284 15.6895 187.957 15.4755C188.629 15.2462 189.417 15.1315 190.319 15.1315C191.098 15.1315 191.771 15.1927 192.336 15.315C192.902 15.422 193.399 15.6054 193.827 15.8653C194.469 16.2322 194.935 16.729 195.226 17.3557C195.531 17.9672 195.684 18.6857 195.684 19.5112V25.7711C195.684 26.7036 195.837 27.2692 196.143 27.468V27.6743H192.634ZM189.608 25.6336C190.418 25.6336 191.06 25.4119 191.534 24.9686C192.023 24.5253 192.268 23.9673 192.268 23.2947V21.7125C192.008 21.8806 191.687 22.0182 191.305 22.1252C190.938 22.217 190.555 22.3087 190.158 22.4004C189.363 22.5685 188.775 22.7749 188.392 23.0195C188.01 23.2641 187.819 23.6539 187.819 24.189C187.819 24.724 187.995 25.0985 188.347 25.3125C188.698 25.5265 189.119 25.6336 189.608 25.6336Z" fill="white"/>
<path d="M203.026 28.0642C202.139 28.0642 201.344 27.9648 200.641 27.7661C199.938 27.5673 199.334 27.2845 198.83 26.9176C198.341 26.5508 197.951 26.1151 197.66 25.6106C197.385 25.0909 197.225 24.5253 197.179 23.9138H200.572C200.68 24.4947 200.939 24.938 201.352 25.2437C201.78 25.5495 202.346 25.7023 203.049 25.7023C203.691 25.7023 204.188 25.5801 204.539 25.3355C204.891 25.0909 205.067 24.7469 205.067 24.3036C205.067 24.0284 204.983 23.8068 204.815 23.6386C204.646 23.4705 204.417 23.3329 204.127 23.2259C203.836 23.1189 203.5 23.0348 203.118 22.9736C202.751 22.8972 202.353 22.8208 201.925 22.7443C201.375 22.6373 200.84 22.515 200.32 22.3775C199.801 22.2399 199.334 22.0335 198.922 21.7583C198.509 21.4832 198.172 21.1239 197.913 20.6806C197.668 20.2373 197.546 19.6564 197.546 18.9379C197.546 18.3112 197.676 17.7608 197.936 17.287C198.211 16.8131 198.578 16.4156 199.036 16.0946C199.495 15.7736 200.037 15.5366 200.664 15.3837C201.291 15.2156 201.964 15.1315 202.682 15.1315C204.379 15.1315 205.663 15.4678 206.534 16.1404C207.406 16.7978 207.925 17.6615 208.094 18.7316H204.746C204.516 17.8602 203.829 17.4245 202.682 17.4245C202.132 17.4245 201.688 17.5315 201.352 17.7456C201.031 17.9596 200.871 18.2653 200.871 18.6628C200.871 18.8921 200.947 19.0832 201.1 19.236C201.253 19.3736 201.467 19.4883 201.742 19.58C202.017 19.6717 202.338 19.7481 202.705 19.8093C203.072 19.8704 203.462 19.9392 203.874 20.0156C204.425 20.1074 204.975 20.2297 205.525 20.3825C206.076 20.5201 206.573 20.7341 207.016 21.0246C207.459 21.315 207.818 21.7048 208.094 22.194C208.384 22.6679 208.529 23.287 208.529 24.0514C208.529 24.7087 208.392 25.2896 208.117 25.7941C207.841 26.2985 207.459 26.7189 206.97 27.0552C206.481 27.3915 205.9 27.6438 205.227 27.8119C204.555 27.9801 203.821 28.0642 203.026 28.0642Z" fill="white"/>
<path d="M215.341 28.0642C214.454 28.0642 213.659 27.9648 212.956 27.7661C212.253 27.5673 211.649 27.2845 211.144 26.9176C210.655 26.5508 210.265 26.1151 209.975 25.6106C209.7 25.0909 209.539 24.5253 209.493 23.9138H212.887C212.994 24.4947 213.254 24.938 213.667 25.2437C214.095 25.5495 214.66 25.7023 215.364 25.7023C216.006 25.7023 216.502 25.5801 216.854 25.3355C217.206 25.0909 217.381 24.7469 217.381 24.3036C217.381 24.0284 217.297 23.8068 217.129 23.6386C216.961 23.4705 216.732 23.3329 216.441 23.2259C216.151 23.1189 215.815 23.0348 215.432 22.9736C215.066 22.8972 214.668 22.8208 214.24 22.7443C213.69 22.6373 213.155 22.515 212.635 22.3775C212.115 22.2399 211.649 22.0335 211.236 21.7583C210.823 21.4832 210.487 21.1239 210.227 20.6806C209.983 20.2373 209.86 19.6564 209.86 18.9379C209.86 18.3112 209.99 17.7608 210.25 17.287C210.525 16.8131 210.892 16.4156 211.351 16.0946C211.809 15.7736 212.352 15.5366 212.979 15.3837C213.606 15.2156 214.278 15.1315 214.997 15.1315C216.694 15.1315 217.978 15.4678 218.849 16.1404C219.72 16.7978 220.24 17.6615 220.408 18.7316H217.06C216.831 17.8602 216.143 17.4245 214.997 17.4245C214.446 17.4245 214.003 17.5315 213.667 17.7456C213.346 17.9596 213.185 18.2653 213.185 18.6628C213.185 18.8921 213.262 19.0832 213.415 19.236C213.567 19.3736 213.781 19.4883 214.057 19.58C214.332 19.6717 214.653 19.7481 215.02 19.8093C215.387 19.8704 215.776 19.9392 216.189 20.0156C216.739 20.1074 217.29 20.2297 217.84 20.3825C218.39 20.5201 218.887 20.7341 219.331 21.0246C219.774 21.315 220.133 21.7048 220.408 22.194C220.699 22.6679 220.844 23.287 220.844 24.0514C220.844 24.7087 220.706 25.2896 220.431 25.7941C220.156 26.2985 219.774 26.7189 219.285 27.0552C218.796 27.3915 218.215 27.6438 217.542 27.8119C216.869 27.9801 216.136 28.0642 215.341 28.0642Z" fill="white"/>
<path d="M230.295 27.6743C230.203 27.5368 230.119 27.3457 230.043 27.1011C229.966 26.8412 229.913 26.5355 229.882 26.1839H229.836C229.439 26.7495 228.957 27.1928 228.392 27.5138C227.841 27.8349 227.092 27.9954 226.145 27.9954C225.548 27.9954 224.99 27.9113 224.471 27.7431C223.966 27.5903 223.523 27.361 223.141 27.0552C222.774 26.7495 222.483 26.3673 222.269 25.9087C222.071 25.4348 221.971 24.8998 221.971 24.3036C221.971 23.631 222.094 23.073 222.338 22.6297C222.598 22.1864 222.942 21.8271 223.37 21.552C223.798 21.2768 224.303 21.0704 224.883 20.9329C225.464 20.78 226.091 20.6653 226.764 20.5889C227.849 20.436 228.629 20.2526 229.103 20.0386C229.592 19.8246 229.836 19.4883 229.836 19.0296C229.836 18.5863 229.691 18.2347 229.401 17.9749C229.11 17.6997 228.652 17.5621 228.025 17.5621C227.337 17.5621 226.817 17.7073 226.466 17.9978C226.129 18.2882 225.938 18.6781 225.892 19.1672H222.568C222.583 18.6475 222.705 18.143 222.934 17.6538C223.164 17.1647 223.5 16.7366 223.943 16.3697C224.387 15.9876 224.945 15.6895 225.617 15.4755C226.29 15.2462 227.077 15.1315 227.979 15.1315C228.759 15.1315 229.431 15.1927 229.997 15.315C230.563 15.422 231.059 15.6054 231.487 15.8653C232.129 16.2322 232.596 16.729 232.886 17.3557C233.192 17.9672 233.345 18.6857 233.345 19.5112V25.7711C233.345 26.7036 233.498 27.2692 233.803 27.468V27.6743H230.295ZM227.268 25.6336C228.078 25.6336 228.72 25.4119 229.194 24.9686C229.684 24.5253 229.928 23.9673 229.928 23.2947V21.7125C229.668 21.8806 229.347 22.0182 228.965 22.1252C228.598 22.217 228.216 22.3087 227.819 22.4004C227.024 22.5685 226.435 22.7749 226.053 23.0195C225.671 23.2641 225.48 23.6539 225.48 24.189C225.48 24.724 225.655 25.0985 226.007 25.3125C226.359 25.5265 226.779 25.6336 227.268 25.6336Z" fill="white"/>
<path d="M239.104 17.3328H239.173C239.555 16.599 240.06 16.0487 240.687 15.6818C241.329 15.315 242.078 15.1315 242.934 15.1315C244.279 15.1315 245.318 15.5443 246.052 16.3697C246.801 17.1799 247.176 18.273 247.176 19.6488V27.6743H243.599V20.3367C243.599 19.6641 243.423 19.129 243.071 18.7316C242.735 18.3188 242.231 18.1124 241.558 18.1124C240.855 18.1124 240.289 18.3647 239.861 18.8691C239.433 19.3736 239.219 20.0156 239.219 20.7953V27.6743H235.619V15.4755H239.104V17.3328Z" fill="white"/>
</svg>
