<svg version="1.1" viewBox="0 0 512 512" fill="none" xmlns="http://www.w3.org/2000/svg">
<path d="M256.001 512C291.321 512 319.971 483.35 319.971 448H192.031C192.031 483.35 220.681 512 256.001 512ZM471.391 362.29C452.071 341.53 415.921 310.3 415.921 208C415.921 130.3 361.441 68.1 287.981 52.84V32C287.981 14.33 273.661 0 256.001 0C238.341 0 224.021 14.33 224.021 32V52.84C150.561 68.1 96.0807 130.3 96.0807 208C96.0807 310.3 59.9307 341.53 40.6107 362.29C34.6107 368.74 31.9507 376.45 32.0007 384C32.1107 400.4 44.9807 416 64.1007 416H447.901C467.021 416 479.901 400.4 480.001 384C480.051 376.45 477.391 368.73 471.391 362.29V362.29Z" fill="currentColor"/>
</svg>
