<svg version="1.1" viewBox="0 0 512 512" xmlns="http://www.w3.org/2000/svg">
<path d="M180 288H140C133.4 288 128 282.6 128 276V236C128 229.4 133.4 224 140 224H180C186.6 224 192 229.4 192 236V276C192 282.6 186.6 288 180 288ZM288 276V236C288 229.4 282.6 224 276 224H236C229.4 224 224 229.4 224 236V276C224 282.6 229.4 288 236 288H276C282.6 288 288 282.6 288 276ZM384 276V236C384 229.4 378.6 224 372 224H332C325.4 224 320 229.4 320 236V276C320 282.6 325.4 288 332 288H372C378.6 288 384 282.6 384 276ZM288 372V332C288 325.4 282.6 320 276 320H236C229.4 320 224 325.4 224 332V372C224 378.6 229.4 384 236 384H276C282.6 384 288 378.6 288 372ZM192 372V332C192 325.4 186.6 320 180 320H140C133.4 320 128 325.4 128 332V372C128 378.6 133.4 384 140 384H180C186.6 384 192 378.6 192 372ZM384 372V332C384 325.4 378.6 320 372 320H332C325.4 320 320 325.4 320 332V372C320 378.6 325.4 384 332 384H372C378.6 384 384 378.6 384 372ZM480 112V464C480 490.5 458.5 512 432 512H80C53.5 512 32 490.5 32 464V112C32 85.5 53.5 64 80 64H128V12C128 5.4 133.4 0 140 0H180C186.6 0 192 5.4 192 12V64H320V12C320 5.4 325.4 0 332 0H372C378.6 0 384 5.4 384 12V64H432C458.5 64 480 85.5 480 112ZM432 458V160H80V458C80 461.3 82.7 464 86 464H426C429.3 464 432 461.3 432 458Z" fill="currentColor"/>
</svg>
