<svg version="1.1" viewBox="0 0 512 512" xmlns="http://www.w3.org/2000/svg">
<path d="M322.72 256L422.79 155.93C435.07 143.65 435.07 123.74 422.79 111.45L400.55 89.21C388.27 76.93 368.36 76.93 356.07 89.21L256 189.28L155.93 89.21C143.65 76.93 123.74 76.93 111.45 89.21L89.21 111.45C76.93 123.73 76.93 143.64 89.21 155.93L189.28 256L89.21 356.07C76.93 368.35 76.93 388.26 89.21 400.55L111.45 422.79C123.73 435.07 143.65 435.07 155.93 422.79L256 322.72L356.07 422.79C368.35 435.07 388.27 435.07 400.55 422.79L422.79 400.55C435.07 388.27 435.07 368.36 422.79 356.07L322.72 256Z" fill="currentColor"/>
</svg>
