<svg version="1.1" viewBox="0 0 512 512" xmlns="http://www.w3.org/2000/svg">
<path d="M75.246 466.142C16.816 405.853 17.905 308.631 76.632 248.561L286.392 34C330.708 -11.332 402.743 -11.336 447.063 34C490.953 78.894 491.006 151.329 447.063 196.276L264.214 383.128C234.359 413.665 185.581 413.239 156.232 382.13C127.957 352.16 128.864 304.657 157.684 275.177L301.427 128.342C307.609 122.028 317.739 121.92 324.053 128.101L346.914 150.48C353.229 156.662 353.336 166.792 347.155 173.106L203.427 319.927C198.495 324.972 198.191 333.355 202.779 338.219C207.151 342.853 214.024 342.93 218.467 338.384L401.316 151.533C420.929 131.471 420.929 98.808 401.305 78.735C382.116 59.108 351.348 59.098 332.151 78.735L122.39 293.295C87.627 328.855 87.091 386.415 121.199 421.608C155.209 456.701 210.184 456.745 244.257 421.894L416.317 245.895C422.494 239.576 432.624 239.462 438.943 245.639L461.82 268.003C468.139 274.18 468.254 284.31 462.076 290.629L290.016 466.627C230.44 527.565 134.073 526.843 75.246 466.142V466.142Z" fill="currentColor"/>
</svg>
