<?xml version="1.0" encoding="utf-8"?>
<!-- Generator: Adobe Illustrator 22.1.0, SVG Export Plug-In . SVG Version: 6.00 Build 0)  -->
<svg version="1.1" id="Lager_5" xmlns="http://www.w3.org/2000/svg" xmlns:xlink="http://www.w3.org/1999/xlink" x="0px" y="0px"
	 viewBox="0 0 512 512" style="enable-background:new 0 0 512 512;" xml:space="preserve">
<path fill="currentColor" d="M387.4,133H140.7c-25.2,0-44.9,19.6-44.9,44.9l22.4,286c0,25.2,19.6,44.9,44.9,44.9H365
	c25.2,0,44.9-19.6,44.9-44.9l22.4-283.2C432.3,152.6,412.6,133,387.4,133z M205.2,435.8c0,11.2-8.4,19.6-19.6,19.6
	s-19.6-8.4-19.6-19.6V203.1c0-11.2,8.4-19.6,19.6-19.6s19.6,8.4,19.6,19.6V435.8z M283.7,438.6c0,11.2-8.4,19.6-19.6,19.6
	s-19.6-8.4-19.6-19.6V203.1c0-11.2,8.4-19.6,19.6-19.6s19.6,8.4,19.6,19.6V438.6z M365,438.6c0,11.2-8.4,19.6-19.6,19.6
	s-22.4-8.4-22.4-19.6V205.9c0-11.2,8.4-19.6,19.6-19.6s19.6,8.4,19.6,19.6v232.7H365z"/>
<path fill="currentColor" d="M437.9,68.5H365V23.7C365,12.5,356.6,4,345.3,4l0,0H182.7c-11.2,0-19.6,8.4-19.6,19.6l0,0v44.9H90.2
	C79,68.5,70.6,79.7,70.6,91s8.4,19.6,19.6,19.6h347.7c11.2,0,19.6-8.4,19.6-19.6S449.1,68.5,437.9,68.5L437.9,68.5z M205.2,46.1
	h117.8v25.2H205.2V46.1z"/>
</svg>
