<svg width="251" height="33" viewBox="0 0 251 33" fill="none" xmlns="http://www.w3.org/2000/svg">
<path d="M41.826 10.4419H54.5756V13.8278H45.7956V17.6106H53.1278V20.8564H45.7956V27.815H41.826V10.4419Z" fill="#297952"/>
<path d="M61.4107 28.2119C60.4144 28.2119 59.5115 28.0485 58.702 27.7216C57.8925 27.3791 57.1997 26.9121 56.6238 26.3205C56.0478 25.7289 55.6041 25.0362 55.2928 24.2423C54.9814 23.4328 54.8257 22.561 54.8257 21.627C54.8257 20.6929 54.9814 19.829 55.2928 19.035C55.6041 18.2255 56.0478 17.525 56.6238 16.9334C57.1997 16.3419 57.8925 15.8827 58.702 15.5557C59.5115 15.2133 60.4144 15.042 61.4107 15.042C62.3914 15.042 63.2865 15.2133 64.096 15.5557C64.9055 15.8827 65.5905 16.3419 66.1509 16.9334C66.7269 17.525 67.1706 18.2255 67.4819 19.035C67.7933 19.829 67.9489 20.6929 67.9489 21.627C67.9489 22.561 67.7933 23.4328 67.4819 24.2423C67.1706 25.0362 66.7269 25.7289 66.1509 26.3205C65.5905 26.9121 64.9055 27.3791 64.096 27.7216C63.2865 28.0485 62.3914 28.2119 61.4107 28.2119ZM61.3873 25.5499C62.3058 25.5499 63.0063 25.1919 63.4889 24.4758C63.9871 23.7441 64.2361 22.7945 64.2361 21.627C64.2361 20.4439 63.9871 19.4865 63.4889 18.7548C63.0063 18.0232 62.3058 17.6573 61.3873 17.6573C60.4533 17.6573 59.745 18.0232 59.2624 18.7548C58.7798 19.4865 58.5385 20.4439 58.5385 21.627C58.5385 22.7945 58.7798 23.7441 59.2624 24.4758C59.745 25.1919 60.4533 25.5499 61.3873 25.5499ZM62.5082 10.4419H65.9641V13.641H62.5082V10.4419ZM56.8339 10.4419H60.3132V13.641H56.8339V10.4419Z" fill="#297952"/>
<path d="M73.1635 17.6106H73.2336C73.6383 16.7389 74.1209 16.1162 74.6813 15.7425C75.2418 15.3689 75.9112 15.1821 76.6895 15.1821C77.0631 15.1821 77.32 15.2133 77.4601 15.2755V18.4746H77.3667C77.1021 18.4279 76.8452 18.4046 76.5961 18.4046C75.5998 18.389 74.7981 18.6925 74.191 19.3152C73.5994 19.9224 73.3036 20.833 73.3036 22.0473V27.815H69.6375V15.3923H73.1635V17.6106Z" fill="#297952"/>
<path d="M84.2146 28.2119C83.3117 28.2119 82.5022 28.1107 81.7861 27.9084C81.07 27.706 80.4551 27.418 79.9414 27.0444C79.4432 26.6708 79.0462 26.2271 78.7505 25.7134C78.4703 25.1841 78.3068 24.6081 78.2601 23.9854H81.716C81.825 24.577 82.0896 25.0284 82.51 25.3398C82.9458 25.6511 83.5218 25.8068 84.2379 25.8068C84.8918 25.8068 85.3977 25.6822 85.7557 25.4332C86.1138 25.1841 86.2928 24.8338 86.2928 24.3824C86.2928 24.1022 86.2072 23.8764 86.0359 23.7052C85.8647 23.534 85.6312 23.3939 85.3354 23.2849C85.0396 23.1759 84.6972 23.0903 84.308 23.028C83.9344 22.9502 83.5296 22.8724 83.0937 22.7945C82.5333 22.6855 81.9885 22.561 81.4592 22.4209C80.9299 22.2808 80.4551 22.0706 80.0348 21.7904C79.6144 21.5102 79.272 21.1444 79.0073 20.6929C78.7582 20.2415 78.6337 19.6499 78.6337 18.9183C78.6337 18.28 78.766 17.7196 79.0307 17.237C79.3109 16.7544 79.6845 16.3497 80.1515 16.0228C80.6185 15.6958 81.1712 15.4546 81.8094 15.2989C82.4477 15.1276 83.1327 15.042 83.8643 15.042C85.5923 15.042 86.8999 15.3845 87.7873 16.0695C88.6746 16.7389 89.2039 17.6184 89.3751 18.7081H85.9659C85.7324 17.8208 85.0319 17.3771 83.8643 17.3771C83.3039 17.3771 82.8524 17.4861 82.51 17.704C82.183 17.922 82.0196 18.2333 82.0196 18.6381C82.0196 18.8716 82.0974 19.0662 82.2531 19.2218C82.4088 19.3619 82.6267 19.4787 82.9069 19.5721C83.1871 19.6655 83.514 19.7433 83.8877 19.8056C84.2613 19.8679 84.6582 19.9379 85.0786 20.0158C85.639 20.1092 86.1994 20.2337 86.7598 20.3894C87.3202 20.5295 87.8262 20.7474 88.2776 21.0432C88.7291 21.339 89.0949 21.7359 89.3751 22.2341C89.6709 22.7167 89.8188 23.3472 89.8188 24.1255C89.8188 24.7949 89.6787 25.3865 89.3985 25.9002C89.1183 26.4139 88.7291 26.842 88.2309 27.1845C87.7328 27.527 87.1412 27.7838 86.4563 27.9551C85.7713 28.1263 85.0241 28.2119 84.2146 28.2119Z" fill="#297952"/>
<path d="M99.4432 27.815C99.3498 27.6749 99.2642 27.4803 99.1864 27.2312C99.1085 26.9665 99.0541 26.6552 99.0229 26.2972H98.9762C98.5715 26.8731 98.0811 27.3246 97.5051 27.6515C96.9447 27.9784 96.1819 28.1419 95.2167 28.1419C94.6096 28.1419 94.0414 28.0563 93.5121 27.885C92.9984 27.7293 92.5469 27.4958 92.1578 27.1845C91.7841 26.8731 91.4884 26.484 91.2704 26.0169C91.0681 25.5344 90.9669 24.9895 90.9669 24.3824C90.9669 23.6974 91.0914 23.1292 91.3405 22.6778C91.6051 22.2263 91.9554 21.8605 92.3913 21.5803C92.8272 21.3001 93.3409 21.0899 93.9324 20.9498C94.524 20.7941 95.1622 20.6774 95.8472 20.5995C96.9525 20.4439 97.7464 20.2571 98.229 20.0391C98.7271 19.8212 98.9762 19.4787 98.9762 19.0117C98.9762 18.5602 98.8283 18.2022 98.5326 17.9375C98.2368 17.6573 97.7698 17.5172 97.1315 17.5172C96.431 17.5172 95.9017 17.6651 95.5436 17.9609C95.2012 18.2567 95.0066 18.6536 94.9599 19.1518H91.574C91.5896 18.6225 91.7141 18.1088 91.9476 17.6106C92.1811 17.1125 92.5236 16.6766 92.975 16.303C93.4265 15.9138 93.9947 15.6102 94.6796 15.3923C95.3646 15.1588 96.1663 15.042 97.0848 15.042C97.8787 15.042 98.5637 15.1043 99.1397 15.2288C99.7157 15.3378 100.222 15.5246 100.657 15.7892C101.311 16.1629 101.786 16.6688 102.082 17.3071C102.393 17.9298 102.549 18.6614 102.549 19.502V25.8768C102.549 26.8264 102.705 27.4024 103.016 27.6048V27.815H99.4432ZM96.3609 25.7367C97.186 25.7367 97.8398 25.511 98.3224 25.0596C98.8205 24.6081 99.0696 24.0399 99.0696 23.3549V21.7437C98.805 21.915 98.4781 22.0551 98.0889 22.164C97.7153 22.2575 97.3261 22.3509 96.9213 22.4443C96.1118 22.6155 95.5125 22.8257 95.1233 23.0747C94.7341 23.3238 94.5395 23.7208 94.5395 24.2656C94.5395 24.8105 94.7186 25.1919 95.0766 25.4098C95.4347 25.6278 95.8628 25.7367 96.3609 25.7367ZM92.5547 10.4419H96.034V13.641H92.5547V10.4419ZM98.229 10.4419H101.685V13.641H98.229V10.4419Z" fill="#297952"/>
<path d="M109.722 22.3976L108.484 23.6819V27.815H104.865V10.4419H108.484V15.8593C108.484 16.7778 108.469 17.5717 108.438 18.2411C108.422 18.9105 108.399 19.4476 108.368 19.8523L112.454 15.3923H116.704L112.267 19.9924L117.218 27.815H112.968L109.722 22.3976Z" fill="#297952"/>
<path d="M122.003 17.6106H122.073C122.478 16.7389 122.961 16.1162 123.521 15.7425C124.081 15.3689 124.751 15.1821 125.529 15.1821C125.903 15.1821 126.16 15.2133 126.3 15.2755V18.4746H126.206C125.942 18.4279 125.685 18.4046 125.436 18.4046C124.439 18.389 123.638 18.6925 123.031 19.3152C122.439 19.9224 122.143 20.833 122.143 22.0473V27.815H118.477V15.3923H122.003V17.6106Z" fill="#297952"/>
<path d="M127.87 10.4419H131.583V13.641H127.87V10.4419ZM127.894 15.3923H131.56V27.815H127.894V15.3923Z" fill="#297952"/>
<path d="M137.371 17.2837H137.441C137.83 16.5365 138.344 15.9761 138.982 15.6024C139.636 15.2288 140.398 15.042 141.27 15.042C142.64 15.042 143.699 15.4623 144.446 16.303C145.209 17.128 145.59 18.2411 145.59 19.6421V27.815H141.947V20.3427C141.947 19.6577 141.768 19.1129 141.41 18.7081C141.068 18.2878 140.554 18.0776 139.869 18.0776C139.153 18.0776 138.577 18.3345 138.141 18.8482C137.705 19.3619 137.487 20.0158 137.487 20.8097V27.815H133.821V15.3923H137.371V17.2837Z" fill="#297952"/>
<path d="M153.521 32.1349C151.808 32.1349 150.43 31.7924 149.387 31.1074C148.344 30.438 147.729 29.4884 147.543 28.2586H151.115C151.24 28.6322 151.481 28.9358 151.839 29.1693C152.213 29.4028 152.758 29.5196 153.474 29.5196C154.346 29.5196 154.992 29.3094 155.412 28.8891C155.848 28.4688 156.066 27.8772 156.066 27.1144V26.8576C156.066 26.1882 156.089 25.6433 156.136 25.223H156.042C155.311 26.4373 154.19 27.0444 152.68 27.0444C151.964 27.0444 151.279 26.9198 150.625 26.6708C149.971 26.4061 149.395 26.0247 148.897 25.5266C148.399 25.0129 148.002 24.3902 147.706 23.6585C147.41 22.9268 147.262 22.094 147.262 21.16C147.262 20.2571 147.387 19.432 147.636 18.6848C147.901 17.922 148.267 17.2759 148.734 16.7466C149.201 16.2018 149.753 15.7815 150.391 15.4857C151.03 15.1899 151.73 15.042 152.493 15.042C153.334 15.042 154.05 15.1899 154.641 15.4857C155.233 15.7815 155.708 16.2796 156.066 16.9801H156.112V15.3923H159.615V26.7175C159.615 27.6515 159.467 28.4454 159.171 29.0993C158.891 29.7687 158.502 30.3291 158.004 30.7805C157.459 31.2475 156.805 31.59 156.042 31.808C155.28 32.0259 154.439 32.1349 153.521 32.1349ZM153.497 24.289C153.964 24.289 154.361 24.2111 154.688 24.0555C155.031 23.8842 155.311 23.6507 155.529 23.3549C155.762 23.0592 155.926 22.7167 156.019 22.3275C156.128 21.9383 156.183 21.5102 156.183 21.0432C156.183 20.1247 155.957 19.3619 155.505 18.7548C155.054 18.1321 154.377 17.8208 153.474 17.8208C152.664 17.8208 152.026 18.1166 151.559 18.7081C151.092 19.2841 150.858 20.0702 150.858 21.0666C150.858 22.0473 151.092 22.8334 151.559 23.425C152.026 24.001 152.672 24.289 153.497 24.289Z" fill="#297952"/>
<path d="M167.073 28.2119C166.17 28.2119 165.361 28.1107 164.645 27.9084C163.928 27.706 163.314 27.418 162.8 27.0444C162.302 26.6708 161.905 26.2271 161.609 25.7134C161.329 25.1841 161.165 24.6081 161.119 23.9854H164.574C164.683 24.577 164.948 25.0284 165.368 25.3398C165.804 25.6511 166.38 25.8068 167.096 25.8068C167.75 25.8068 168.256 25.6822 168.614 25.4332C168.972 25.1841 169.151 24.8338 169.151 24.3824C169.151 24.1022 169.066 23.8764 168.894 23.7052C168.723 23.534 168.49 23.3939 168.194 23.2849C167.898 23.1759 167.556 23.0903 167.166 23.028C166.793 22.9502 166.388 22.8724 165.952 22.7945C165.392 22.6855 164.847 22.561 164.318 22.4209C163.788 22.2808 163.314 22.0706 162.893 21.7904C162.473 21.5102 162.13 21.1444 161.866 20.6929C161.617 20.2415 161.492 19.6499 161.492 18.9183C161.492 18.28 161.624 17.7196 161.889 17.237C162.169 16.7544 162.543 16.3497 163.01 16.0228C163.477 15.6958 164.03 15.4546 164.668 15.2989C165.306 15.1276 165.991 15.042 166.723 15.042C168.451 15.042 169.758 15.3845 170.646 16.0695C171.533 16.7389 172.062 17.6184 172.234 18.7081H168.824C168.591 17.8208 167.89 17.3771 166.723 17.3771C166.162 17.3771 165.711 17.4861 165.368 17.704C165.041 17.922 164.878 18.2333 164.878 18.6381C164.878 18.8716 164.956 19.0662 165.112 19.2218C165.267 19.3619 165.485 19.4787 165.765 19.5721C166.046 19.6655 166.372 19.7433 166.746 19.8056C167.12 19.8679 167.517 19.9379 167.937 20.0158C168.497 20.1092 169.058 20.2337 169.618 20.3894C170.179 20.5295 170.685 20.7474 171.136 21.0432C171.588 21.339 171.953 21.7359 172.234 22.2341C172.529 22.7167 172.677 23.3472 172.677 24.1255C172.677 24.7949 172.537 25.3865 172.257 25.9002C171.977 26.4139 171.588 26.842 171.089 27.1845C170.591 27.527 170 27.7838 169.315 27.9551C168.63 28.1263 167.883 28.2119 167.073 28.2119Z" fill="#297952"/>
<path d="M179.196 22.3976L177.958 23.6819V27.815H174.339V10.4419H177.958V15.8593C177.958 16.7778 177.943 17.5717 177.912 18.2411C177.896 18.9105 177.873 19.4476 177.842 19.8523L181.928 15.3923H186.178L181.741 19.9924L186.692 27.815H182.442L179.196 22.3976Z" fill="#297952"/>
<path d="M195.458 27.815C195.365 27.6749 195.279 27.4803 195.201 27.2312C195.123 26.9665 195.069 26.6552 195.038 26.2972H194.991C194.586 26.8731 194.096 27.3246 193.52 27.6515C192.959 27.9784 192.197 28.1419 191.231 28.1419C190.624 28.1419 190.056 28.0563 189.527 27.885C189.013 27.7293 188.562 27.4958 188.172 27.1845C187.799 26.8731 187.503 26.484 187.285 26.0169C187.083 25.5344 186.982 24.9895 186.982 24.3824C186.982 23.6974 187.106 23.1292 187.355 22.6778C187.62 22.2263 187.97 21.8605 188.406 21.5803C188.842 21.3001 189.356 21.0899 189.947 20.9498C190.539 20.7941 191.177 20.6774 191.862 20.5995C192.967 20.4439 193.761 20.2571 194.244 20.0391C194.742 19.8212 194.991 19.4787 194.991 19.0117C194.991 18.5602 194.843 18.2022 194.547 17.9375C194.251 17.6573 193.784 17.5172 193.146 17.5172C192.446 17.5172 191.916 17.6651 191.558 17.9609C191.216 18.2567 191.021 18.6536 190.975 19.1518H187.589C187.604 18.6225 187.729 18.1088 187.962 17.6106C188.196 17.1125 188.538 16.6766 188.99 16.303C189.441 15.9138 190.009 15.6102 190.694 15.3923C191.379 15.1588 192.181 15.042 193.1 15.042C193.893 15.042 194.578 15.1043 195.154 15.2288C195.73 15.3378 196.236 15.5246 196.672 15.7892C197.326 16.1629 197.801 16.6688 198.097 17.3071C198.408 17.9298 198.564 18.6614 198.564 19.502V25.8768C198.564 26.8264 198.719 27.4024 199.031 27.6048V27.815H195.458ZM192.376 25.7367C193.201 25.7367 193.855 25.511 194.337 25.0596C194.835 24.6081 195.084 24.0399 195.084 23.3549V21.7437C194.82 21.915 194.493 22.0551 194.104 22.164C193.73 22.2575 193.341 22.3509 192.936 22.4443C192.127 22.6155 191.527 22.8257 191.138 23.0747C190.749 23.3238 190.554 23.7208 190.554 24.2656C190.554 24.8105 190.733 25.1919 191.091 25.4098C191.449 25.6278 191.877 25.7367 192.376 25.7367Z" fill="#297952"/>
<path d="M206.04 28.2119C205.137 28.2119 204.328 28.1107 203.612 27.9084C202.896 27.706 202.281 27.418 201.767 27.0444C201.269 26.6708 200.872 26.2271 200.576 25.7134C200.296 25.1841 200.132 24.6081 200.086 23.9854H203.542C203.651 24.577 203.915 25.0284 204.336 25.3398C204.771 25.6511 205.347 25.8068 206.063 25.8068C206.717 25.8068 207.223 25.6822 207.581 25.4332C207.939 25.1841 208.118 24.8338 208.118 24.3824C208.118 24.1022 208.033 23.8764 207.861 23.7052C207.69 23.534 207.457 23.3939 207.161 23.2849C206.865 23.1759 206.523 23.0903 206.134 23.028C205.76 22.9502 205.355 22.8724 204.919 22.7945C204.359 22.6855 203.814 22.561 203.285 22.4209C202.755 22.2808 202.281 22.0706 201.86 21.7904C201.44 21.5102 201.098 21.1444 200.833 20.6929C200.584 20.2415 200.459 19.6499 200.459 18.9183C200.459 18.28 200.592 17.7196 200.856 17.237C201.136 16.7544 201.51 16.3497 201.977 16.0228C202.444 15.6958 202.997 15.4546 203.635 15.2989C204.273 15.1276 204.958 15.042 205.69 15.042C207.418 15.042 208.725 15.3845 209.613 16.0695C210.5 16.7389 211.029 17.6184 211.201 18.7081H207.791C207.558 17.8208 206.857 17.3771 205.69 17.3771C205.129 17.3771 204.678 17.4861 204.336 17.704C204.009 17.922 203.845 18.2333 203.845 18.6381C203.845 18.8716 203.923 19.0662 204.079 19.2218C204.234 19.3619 204.452 19.4787 204.732 19.5721C205.013 19.6655 205.34 19.7433 205.713 19.8056C206.087 19.8679 206.484 19.9379 206.904 20.0158C207.465 20.1092 208.025 20.2337 208.585 20.3894C209.146 20.5295 209.652 20.7474 210.103 21.0432C210.555 21.339 210.92 21.7359 211.201 22.2341C211.496 22.7167 211.644 23.3472 211.644 24.1255C211.644 24.7949 211.504 25.3865 211.224 25.9002C210.944 26.4139 210.555 26.842 210.056 27.1845C209.558 27.527 208.967 27.7838 208.282 27.9551C207.597 28.1263 206.85 28.2119 206.04 28.2119Z" fill="#297952"/>
<path d="M218.581 28.2119C217.678 28.2119 216.868 28.1107 216.152 27.9084C215.436 27.706 214.821 27.418 214.307 27.0444C213.809 26.6708 213.412 26.2271 213.117 25.7134C212.836 25.1841 212.673 24.6081 212.626 23.9854H216.082C216.191 24.577 216.456 25.0284 216.876 25.3398C217.312 25.6511 217.888 25.8068 218.604 25.8068C219.258 25.8068 219.764 25.6822 220.122 25.4332C220.48 25.1841 220.659 24.8338 220.659 24.3824C220.659 24.1022 220.573 23.8764 220.402 23.7052C220.231 23.534 219.997 23.3939 219.702 23.2849C219.406 23.1759 219.063 23.0903 218.674 23.028C218.301 22.9502 217.896 22.8724 217.46 22.7945C216.899 22.6855 216.355 22.561 215.825 22.4209C215.296 22.2808 214.821 22.0706 214.401 21.7904C213.981 21.5102 213.638 21.1444 213.373 20.6929C213.124 20.2415 213 19.6499 213 18.9183C213 18.28 213.132 17.7196 213.397 17.237C213.677 16.7544 214.051 16.3497 214.518 16.0228C214.985 15.6958 215.537 15.4546 216.176 15.2989C216.814 15.1276 217.499 15.042 218.23 15.042C219.958 15.042 221.266 15.3845 222.153 16.0695C223.041 16.7389 223.57 17.6184 223.741 18.7081H220.332C220.099 17.8208 219.398 17.3771 218.23 17.3771C217.67 17.3771 217.219 17.4861 216.876 17.704C216.549 17.922 216.386 18.2333 216.386 18.6381C216.386 18.8716 216.464 19.0662 216.619 19.2218C216.775 19.3619 216.993 19.4787 217.273 19.5721C217.553 19.6655 217.88 19.7433 218.254 19.8056C218.627 19.8679 219.024 19.9379 219.445 20.0158C220.005 20.1092 220.566 20.2337 221.126 20.3894C221.686 20.5295 222.192 20.7474 222.644 21.0432C223.095 21.339 223.461 21.7359 223.741 22.2341C224.037 22.7167 224.185 23.3472 224.185 24.1255C224.185 24.7949 224.045 25.3865 223.765 25.9002C223.484 26.4139 223.095 26.842 222.597 27.1845C222.099 27.527 221.507 27.7838 220.822 27.9551C220.137 28.1263 219.39 28.2119 218.581 28.2119Z" fill="#297952"/>
<path d="M233.809 27.815C233.716 27.6749 233.63 27.4803 233.553 27.2312C233.475 26.9665 233.42 26.6552 233.389 26.2972H233.342C232.938 26.8731 232.447 27.3246 231.871 27.6515C231.311 27.9784 230.548 28.1419 229.583 28.1419C228.976 28.1419 228.408 28.0563 227.878 27.885C227.365 27.7293 226.913 27.4958 226.524 27.1845C226.15 26.8731 225.854 26.484 225.637 26.0169C225.434 25.5344 225.333 24.9895 225.333 24.3824C225.333 23.6974 225.458 23.1292 225.707 22.6778C225.971 22.2263 226.322 21.8605 226.757 21.5803C227.193 21.3001 227.707 21.0899 228.299 20.9498C228.89 20.7941 229.528 20.6774 230.213 20.5995C231.319 20.4439 232.113 20.2571 232.595 20.0391C233.093 19.8212 233.342 19.4787 233.342 19.0117C233.342 18.5602 233.194 18.2022 232.899 17.9375C232.603 17.6573 232.136 17.5172 231.498 17.5172C230.797 17.5172 230.268 17.6651 229.91 17.9609C229.567 18.2567 229.373 18.6536 229.326 19.1518H225.94C225.956 18.6225 226.08 18.1088 226.314 17.6106C226.547 17.1125 226.89 16.6766 227.341 16.303C227.793 15.9138 228.361 15.6102 229.046 15.3923C229.731 15.1588 230.532 15.042 231.451 15.042C232.245 15.042 232.93 15.1043 233.506 15.2288C234.082 15.3378 234.588 15.5246 235.024 15.7892C235.677 16.1629 236.152 16.6688 236.448 17.3071C236.759 17.9298 236.915 18.6614 236.915 19.502V25.8768C236.915 26.8264 237.071 27.4024 237.382 27.6048V27.815H233.809ZM230.727 25.7367C231.552 25.7367 232.206 25.511 232.689 25.0596C233.187 24.6081 233.436 24.0399 233.436 23.3549V21.7437C233.171 21.915 232.844 22.0551 232.455 22.164C232.081 22.2575 231.692 22.3509 231.287 22.4443C230.478 22.6155 229.879 22.8257 229.489 23.0747C229.1 23.3238 228.906 23.7208 228.906 24.2656C228.906 24.8105 229.085 25.1919 229.443 25.4098C229.801 25.6278 230.229 25.7367 230.727 25.7367Z" fill="#297952"/>
<path d="M242.78 17.2837H242.85C243.24 16.5365 243.753 15.9761 244.392 15.6024C245.045 15.2288 245.808 15.042 246.68 15.042C248.05 15.042 249.108 15.4623 249.856 16.303C250.618 17.128 251 18.2411 251 19.6421V27.815H247.357V20.3427C247.357 19.6577 247.178 19.1129 246.82 18.7081C246.478 18.2878 245.964 18.0776 245.279 18.0776C244.563 18.0776 243.987 18.3345 243.551 18.8482C243.115 19.3619 242.897 20.0158 242.897 20.8097V27.815H239.231V15.3923H242.78V17.2837Z" fill="#297952"/>
<rect y="0.0839844" width="30.3535" height="30.3535" rx="2" fill="#297952"/>
<rect x="0.5" y="0.583984" width="29.3535" height="29.3535" rx="1.5" fill="#297952" stroke="#297952"/>
<path d="M2.05096 3.13477C2.05096 2.58248 2.49868 2.13477 3.05096 2.13477H28.3026L20.5941 9.72098C20.407 9.90507 20.1551 10.0082 19.8926 10.0082H11.1384C10.5861 10.0082 10.1384 10.456 10.1384 11.0082V19.2062C10.1384 19.4746 10.0305 19.7317 9.839 19.9198L2.05096 27.5661V3.13477Z" fill="white"/>
<path d="M11.8954 12.9792C11.8954 12.427 12.3431 11.9792 12.8954 11.9792H19.7006C19.9564 11.9792 20.2026 12.0773 20.3883 12.2533L27.9904 19.4555C28.1898 19.6443 28.3027 19.9068 28.3027 20.1814V27.3865C28.3027 27.9388 27.855 28.3865 27.3027 28.3865H20.5132C20.248 28.3865 19.9937 28.2812 19.8061 28.0936L12.1883 20.4758C12.0007 20.2883 11.8954 20.0339 11.8954 19.7687V12.9792Z" fill="white"/>
</svg>
