<?xml version="1.0" encoding="utf-8"?>
<!-- Generator: Adobe Illustrator 16.0.0, SVG Export Plug-In . SVG Version: 6.00 Build 0)  -->
<!DOCTYPE svg PUBLIC "-//W3C//DTD SVG 1.1//EN" "http://www.w3.org/Graphics/SVG/1.1/DTD/svg11.dtd">
<svg version="1.1" xmlns="http://www.w3.org/2000/svg" xmlns:xlink="http://www.w3.org/1999/xlink" x="0px" y="0px"
	 viewBox="-2.024 -14.932 406.295 53.267"
	 enable-background="new -2.024 -14.932 406.295 53.267" xml:space="preserve">
<g id="Lager_1">
	<g>
		<g>
			<path fill="none" stroke="#FFFFFF" stroke-width="0.5939" d="M45.138,29.874c0,1.316-1.045,2.35-2.338,2.35H0.615
				c-1.292,0-2.342-1.031-2.342-2.35v-42.166c0-1.287,1.05-2.343,2.342-2.343h42.183c1.293,0,2.339,1.056,2.339,2.343v42.166H45.138
				z"/>
			<path fill="#FFFFFF" d="M17.68,4.097c-0.43,0-0.779,0.352-0.779,0.777v10.96c0,0.43,0.247,1.042,0.551,1.333l11.428,11.389
				c0.312,0.311,0.907,0.559,1.343,0.559h10.966c0.431,0,0.785-0.356,0.785-0.773V17.402c0-0.423-0.247-1.041-0.544-1.324
				L29.989,4.653c-0.304-0.304-0.901-0.551-1.334-0.551L17.68,4.097z"/>
			<path fill="#FFFFFF" d="M2.128-11.53c-0.424,0-0.779,0.348-0.779,0.775v39.096c0,0.434,0.243,0.534,0.548,0.221l11.326-11.395
				c0.3-0.296,0.546-0.903,0.546-1.336V1.742c0-0.437,0.352-0.787,0.786-0.787h14.105c0.435,0,1.029-0.242,1.334-0.547
				l11.425-11.385c0.305-0.301,0.197-0.548-0.234-0.548H2.128V-11.53z"/>
		</g>
		<path fill="#FFFFFF" d="M66.907,2.508h19.762v5.197H73.085v6.492h11.773v4.808H73.085V30.61h-6.179V2.508z"/>
		<path fill="#FFFFFF" d="M92.742,20.465c0-3.281,1.137-6.548,4.917-6.548c3.824,0,4.961,3.267,4.961,6.548
			c0,3.229-1.137,6.492-4.961,6.492C93.881,26.953,92.742,23.694,92.742,20.465z M99.076,7.11h5.318V2.508h-5.318V7.11z
			 M90.977,7.11h5.306V2.508h-5.306V7.11z M87.148,20.465c0,6.449,4.132,10.72,10.511,10.72c6.421,0,10.557-4.271,10.557-10.72
			c0-6.511-4.134-10.761-10.557-10.761C91.282,9.704,87.148,13.954,87.148,20.465z"/>
		<path fill="#FFFFFF" d="M110.383,10.262h5.304v3.792h0.08c1.026-2.563,3.785-4.346,6.499-4.346c0.396,0,0.863,0.086,1.219,0.196
			v5.196c-0.507-0.111-1.338-0.188-2.009-0.188c-4.088,0-5.507,2.938-5.507,6.527v9.17h-5.589V10.262H110.383z"/>
		<path fill="#FFFFFF" d="M129.653,24.001c0.04,2.444,2.091,3.421,4.291,3.421c1.621,0,3.663-0.623,3.663-2.589
			c0-1.698-2.319-2.284-6.337-3.143c-3.224-0.72-6.459-1.866-6.459-5.447c0-5.192,4.49-6.539,8.858-6.539
			c4.451,0,8.543,1.507,8.98,6.503h-5.315c-0.155-2.16-1.813-2.761-3.82-2.761c-1.258,0-3.107,0.247-3.107,1.897
			c0,2.008,3.151,2.287,6.332,3.014c3.273,0.758,6.464,1.935,6.464,5.719c0,5.349-4.644,7.102-9.294,7.102
			c-4.723,0-9.328-1.797-9.565-7.179L129.653,24.001L129.653,24.001z"/>
		<path fill="#FFFFFF" d="M158.422,22.738c0,1.24-0.162,4.686-4.537,4.686c-1.807,0-3.42-0.51-3.42-2.59
			c0-2.044,1.568-2.639,3.307-3.002c1.731-0.328,3.703-0.353,4.65-1.183V22.738z M156.332,7.11h5.311V2.508h-5.311V7.11z
			 M148.212,7.11h5.318V2.508h-5.318V7.11z M151.092,16.529c0.202-2.213,1.578-3.08,3.705-3.08c1.965,0,3.622,0.354,3.622,2.76
			c0,2.292-3.193,2.152-6.616,2.674c-3.464,0.477-6.933,1.582-6.933,6.177c0,4.18,3.072,6.121,6.933,6.121
			c2.479,0,5.077-0.69,6.854-2.543c0.037,0.685,0.195,1.35,0.388,1.973h5.676c-0.516-0.824-0.71-2.655-0.71-4.522V15.491
			c0-4.876-4.887-5.783-8.945-5.783c-4.562,0-9.253,1.577-9.563,6.821H151.092z"/>
		<path fill="#FFFFFF" d="M167.393,2.508h5.591v15.065l7.046-7.312h6.617l-7.68,7.48l8.551,12.868h-6.784l-5.593-9.102l-2.163,2.111
			v6.99h-5.591L167.393,2.508L167.393,2.508z"/>
		<path fill="#FFFFFF" d="M189.477,10.262h5.309v3.792h0.081c1.032-2.563,3.787-4.346,6.49-4.346c0.392,0,0.858,0.086,1.215,0.196
			v5.196c-0.503-0.111-1.322-0.188-2.01-0.188c-4.078,0-5.499,2.938-5.499,6.527v9.17h-5.592L189.477,10.262L189.477,10.262z"/>
		<path fill="#FFFFFF" d="M204.949,10.262h5.584V30.61h-5.584V10.262z M210.531,7.11h-5.585V2.508h5.585V7.11z"/>
		<path fill="#FFFFFF" d="M214.221,10.262h5.311v2.831h0.106c1.433-2.279,3.862-3.389,6.229-3.389c5.938,0,7.45,3.349,7.45,8.398
			v12.505h-5.604V19.115c0-3.343-0.991-4.997-3.577-4.997c-3.035,0-4.327,1.692-4.327,5.82v10.669h-5.592L214.221,10.262
			L214.221,10.262z"/>
		<path fill="#FFFFFF" d="M245.96,25.808c-3.433,0-4.529-3.193-4.529-6.095c0-3.035,1.38-5.796,4.529-5.796
			c3.625,0,4.768,2.963,4.768,6.263C250.723,23.087,249.138,25.808,245.96,25.808z M256.038,10.262h-5.31v2.722h-0.078
			c-1.348-2.368-3.39-3.275-6.063-3.275c-5.706,0-8.752,4.809-8.752,10.081c0,5.582,2.618,10.232,8.702,10.232
			c2.449,0,4.877-1.021,6.106-3.137h0.079v2.674c0.048,2.902-1.385,5.023-4.494,5.023c-1.978,0-3.669-0.689-4.173-2.794h-5.544
			c0.277,4.647,4.948,6.547,8.975,6.547c9.365,0,10.551-5.684,10.551-9.013V10.262z"/>
		<path fill="#FFFFFF" d="M263.4,24.001c0.039,2.444,2.081,3.421,4.302,3.421c1.607,0,3.652-0.623,3.652-2.589
			c0-1.698-2.319-2.284-6.346-3.143c-3.223-0.72-6.462-1.866-6.462-5.447c0-5.192,4.507-6.539,8.865-6.539
			c4.456,0,8.543,1.507,8.979,6.503h-5.328c-0.146-2.16-1.787-2.761-3.812-2.761c-1.243,0-3.1,0.247-3.1,1.897
			c0,2.008,3.139,2.287,6.33,3.014c3.273,0.758,6.459,1.935,6.459,5.719c0,5.349-4.646,7.102-9.291,7.102
			c-4.709,0-9.331-1.797-9.573-7.179L263.4,24.001L263.4,24.001z"/>
		<path fill="#FFFFFF" d="M279.263,2.508h5.593v15.065l7.05-7.312h6.613l-7.684,7.48l8.54,12.868h-6.781l-5.574-9.102l-2.17,2.111
			v6.99h-5.591L279.263,2.508L279.263,2.508z"/>
		<path fill="#FFFFFF" d="M313.293,22.738c0,1.24-0.154,4.686-4.53,4.686c-1.803,0-3.417-0.51-3.417-2.59
			c0-2.044,1.558-2.639,3.294-3.002c1.738-0.328,3.706-0.353,4.653-1.183V22.738z M305.973,16.529c0.193-2.213,1.572-3.08,3.7-3.08
			c1.968,0,3.624,0.354,3.624,2.76c0,2.292-3.181,2.152-6.613,2.674c-3.465,0.477-6.936,1.582-6.936,6.177
			c0,4.18,3.072,6.121,6.936,6.121c2.485,0,5.08-0.69,6.85-2.543c0.036,0.685,0.208,1.35,0.395,1.973h5.662
			c-0.503-0.824-0.695-2.655-0.695-4.522V15.491c0-4.876-4.883-5.783-8.939-5.783c-4.566,0-9.253,1.577-9.568,6.821H305.973z"/>
		<path fill="#FFFFFF" d="M326.816,24.001c0.039,2.444,2.087,3.421,4.293,3.421c1.63,0,3.669-0.623,3.669-2.589
			c0-1.698-2.325-2.284-6.343-3.143c-3.229-0.72-6.468-1.866-6.468-5.447c0-5.192,4.506-6.539,8.862-6.539
			c4.448,0,8.545,1.507,8.98,6.503h-5.312c-0.148-2.16-1.804-2.761-3.82-2.761c-1.26,0-3.107,0.247-3.107,1.897
			c0,2.008,3.151,2.287,6.335,3.014c3.27,0.758,6.461,1.935,6.461,5.719c0,5.349-4.641,7.102-9.288,7.102
			c-4.713,0-9.332-1.797-9.574-7.179L326.816,24.001L326.816,24.001z"/>
		<path fill="#FFFFFF" d="M347.219,24.001c0.038,2.444,2.1,3.421,4.296,3.421c1.615,0,3.658-0.623,3.658-2.589
			c0-1.698-2.315-2.284-6.338-3.143c-3.222-0.72-6.439-1.866-6.439-5.447c0-5.192,4.48-6.539,8.844-6.539
			c4.456,0,8.554,1.507,8.986,6.503h-5.323c-0.148-2.16-1.806-2.761-3.816-2.761c-1.268,0-3.097,0.247-3.097,1.897
			c0,2.008,3.131,2.287,6.331,3.014c3.247,0.758,6.446,1.935,6.446,5.719c0,5.349-4.642,7.102-9.286,7.102
			c-4.729,0-9.329-1.797-9.573-7.179L347.219,24.001L347.219,24.001z"/>
		<path fill="#FFFFFF" d="M375.983,22.738c0,1.24-0.159,4.686-4.529,4.686c-1.813,0-3.419-0.51-3.419-2.59
			c0-2.044,1.579-2.639,3.316-3.002c1.731-0.328,3.699-0.353,4.633-1.183L375.983,22.738L375.983,22.738z M368.667,16.529
			c0.188-2.213,1.567-3.08,3.711-3.08c1.95,0,3.606,0.354,3.606,2.76c0,2.292-3.18,2.152-6.602,2.674
			c-3.479,0.477-6.93,1.582-6.93,6.177c0,4.18,3.057,6.121,6.93,6.121c2.465,0,5.086-0.69,6.853-2.543
			c0.039,0.685,0.197,1.35,0.383,1.973h5.682c-0.518-0.824-0.718-2.655-0.718-4.522V15.491c0-4.876-4.884-5.783-8.945-5.783
			c-4.553,0-9.252,1.577-9.571,6.821H368.667z"/>
		<path fill="#FFFFFF" d="M385.188,10.262h5.298v2.831h0.127c1.416-2.279,3.854-3.389,6.221-3.389c5.934,0,7.438,3.349,7.438,8.398
			v12.505h-5.602V19.115c0-3.343-0.983-4.997-3.578-4.997c-3.037,0-4.321,1.692-4.321,5.82v10.669h-5.584L385.188,10.262
			L385.188,10.262z"/>
	</g>
	<g>
		<g>
			<path fill="none" stroke="#FFFFFF" stroke-width="0.5939" d="M45.138,29.874c0,1.316-1.045,2.35-2.338,2.35H0.615
				c-1.292,0-2.342-1.031-2.342-2.35v-42.166c0-1.287,1.05-2.343,2.342-2.343h42.183c1.293,0,2.339,1.056,2.339,2.343v42.166H45.138
				z"/>
			<path fill="#FFFFFF" d="M17.68,4.097c-0.43,0-0.779,0.352-0.779,0.777v10.96c0,0.43,0.247,1.042,0.551,1.333l11.428,11.389
				c0.312,0.311,0.907,0.559,1.343,0.559h10.966c0.431,0,0.785-0.356,0.785-0.773V17.402c0-0.423-0.247-1.041-0.544-1.324
				L29.989,4.653c-0.304-0.304-0.901-0.551-1.334-0.551L17.68,4.097z"/>
			<path fill="#FFFFFF" d="M2.128-11.53c-0.424,0-0.779,0.348-0.779,0.775v39.096c0,0.434,0.243,0.534,0.548,0.221l11.326-11.395
				c0.3-0.296,0.546-0.903,0.546-1.336V1.742c0-0.437,0.352-0.787,0.786-0.787h14.105c0.435,0,1.029-0.242,1.334-0.547
				l11.425-11.385c0.305-0.301,0.197-0.548-0.234-0.548H2.128V-11.53z"/>
		</g>
		<path fill="#FFFFFF" d="M66.907,2.508h19.762v5.197H73.085v6.492h11.773v4.808H73.085V30.61h-6.179V2.508z"/>
		<path fill="#FFFFFF" d="M92.742,20.465c0-3.281,1.137-6.548,4.917-6.548c3.824,0,4.961,3.267,4.961,6.548
			c0,3.229-1.137,6.492-4.961,6.492C93.881,26.953,92.742,23.694,92.742,20.465z M99.076,7.11h5.318V2.508h-5.318V7.11z
			 M90.977,7.11h5.306V2.508h-5.306V7.11z M87.148,20.465c0,6.449,4.132,10.72,10.511,10.72c6.421,0,10.557-4.271,10.557-10.72
			c0-6.511-4.134-10.761-10.557-10.761C91.282,9.704,87.148,13.954,87.148,20.465z"/>
		<path fill="#FFFFFF" d="M110.383,10.262h5.304v3.792h0.08c1.026-2.563,3.785-4.346,6.499-4.346c0.396,0,0.863,0.086,1.219,0.196
			v5.196c-0.507-0.111-1.338-0.188-2.009-0.188c-4.088,0-5.507,2.938-5.507,6.527v9.17h-5.589V10.262H110.383z"/>
		<path fill="#FFFFFF" d="M129.653,24.001c0.04,2.444,2.091,3.421,4.291,3.421c1.621,0,3.663-0.623,3.663-2.589
			c0-1.698-2.319-2.284-6.337-3.143c-3.224-0.72-6.459-1.866-6.459-5.447c0-5.192,4.49-6.539,8.858-6.539
			c4.451,0,8.543,1.507,8.98,6.503h-5.315c-0.155-2.16-1.813-2.761-3.82-2.761c-1.258,0-3.107,0.247-3.107,1.897
			c0,2.008,3.151,2.287,6.332,3.014c3.273,0.758,6.464,1.935,6.464,5.719c0,5.349-4.644,7.102-9.294,7.102
			c-4.723,0-9.328-1.797-9.565-7.179L129.653,24.001L129.653,24.001z"/>
		<path fill="#FFFFFF" d="M158.422,22.738c0,1.24-0.162,4.686-4.537,4.686c-1.807,0-3.42-0.51-3.42-2.59
			c0-2.044,1.568-2.639,3.307-3.002c1.731-0.328,3.703-0.353,4.65-1.183V22.738z M156.332,7.11h5.311V2.508h-5.311V7.11z
			 M148.212,7.11h5.318V2.508h-5.318V7.11z M151.092,16.529c0.202-2.213,1.578-3.08,3.705-3.08c1.965,0,3.622,0.354,3.622,2.76
			c0,2.292-3.193,2.152-6.616,2.674c-3.464,0.477-6.933,1.582-6.933,6.177c0,4.18,3.072,6.121,6.933,6.121
			c2.479,0,5.077-0.69,6.854-2.543c0.037,0.685,0.195,1.35,0.388,1.973h5.676c-0.516-0.824-0.71-2.655-0.71-4.522V15.491
			c0-4.876-4.887-5.783-8.945-5.783c-4.562,0-9.253,1.577-9.563,6.821H151.092z"/>
		<path fill="#FFFFFF" d="M167.393,2.508h5.591v15.065l7.046-7.312h6.617l-7.68,7.48l8.551,12.868h-6.784l-5.593-9.102l-2.163,2.111
			v6.99h-5.591L167.393,2.508L167.393,2.508z"/>
		<path fill="#FFFFFF" d="M189.477,10.262h5.309v3.792h0.081c1.032-2.563,3.787-4.346,6.49-4.346c0.392,0,0.858,0.086,1.215,0.196
			v5.196c-0.503-0.111-1.322-0.188-2.01-0.188c-4.078,0-5.499,2.938-5.499,6.527v9.17h-5.592L189.477,10.262L189.477,10.262z"/>
		<path fill="#FFFFFF" d="M204.949,10.262h5.584V30.61h-5.584V10.262z M210.531,7.11h-5.585V2.508h5.585V7.11z"/>
		<path fill="#FFFFFF" d="M214.221,10.262h5.311v2.831h0.106c1.433-2.279,3.862-3.389,6.229-3.389c5.938,0,7.45,3.349,7.45,8.398
			v12.505h-5.604V19.115c0-3.343-0.991-4.997-3.577-4.997c-3.035,0-4.327,1.692-4.327,5.82v10.669h-5.592L214.221,10.262
			L214.221,10.262z"/>
		<path fill="#FFFFFF" d="M245.96,25.808c-3.433,0-4.529-3.193-4.529-6.095c0-3.035,1.38-5.796,4.529-5.796
			c3.625,0,4.768,2.963,4.768,6.263C250.723,23.087,249.138,25.808,245.96,25.808z M256.038,10.262h-5.31v2.722h-0.078
			c-1.348-2.368-3.39-3.275-6.063-3.275c-5.706,0-8.752,4.809-8.752,10.081c0,5.582,2.618,10.232,8.702,10.232
			c2.449,0,4.877-1.021,6.106-3.137h0.079v2.674c0.048,2.902-1.385,5.023-4.494,5.023c-1.978,0-3.669-0.689-4.173-2.794h-5.544
			c0.277,4.647,4.948,6.547,8.975,6.547c9.365,0,10.551-5.684,10.551-9.013V10.262z"/>
		<path fill="#FFFFFF" d="M263.4,24.001c0.039,2.444,2.081,3.421,4.302,3.421c1.607,0,3.652-0.623,3.652-2.589
			c0-1.698-2.319-2.284-6.346-3.143c-3.223-0.72-6.462-1.866-6.462-5.447c0-5.192,4.507-6.539,8.865-6.539
			c4.456,0,8.543,1.507,8.979,6.503h-5.328c-0.146-2.16-1.787-2.761-3.812-2.761c-1.243,0-3.1,0.247-3.1,1.897
			c0,2.008,3.139,2.287,6.33,3.014c3.273,0.758,6.459,1.935,6.459,5.719c0,5.349-4.646,7.102-9.291,7.102
			c-4.709,0-9.331-1.797-9.573-7.179L263.4,24.001L263.4,24.001z"/>
		<path fill="#FFFFFF" d="M279.263,2.508h5.593v15.065l7.05-7.312h6.613l-7.684,7.48l8.54,12.868h-6.781l-5.574-9.102l-2.17,2.111
			v6.99h-5.591L279.263,2.508L279.263,2.508z"/>
		<path fill="#FFFFFF" d="M313.293,22.738c0,1.24-0.154,4.686-4.53,4.686c-1.803,0-3.417-0.51-3.417-2.59
			c0-2.044,1.558-2.639,3.294-3.002c1.738-0.328,3.706-0.353,4.653-1.183V22.738z M305.973,16.529c0.193-2.213,1.572-3.08,3.7-3.08
			c1.968,0,3.624,0.354,3.624,2.76c0,2.292-3.181,2.152-6.613,2.674c-3.465,0.477-6.936,1.582-6.936,6.177
			c0,4.18,3.072,6.121,6.936,6.121c2.485,0,5.08-0.69,6.85-2.543c0.036,0.685,0.208,1.35,0.395,1.973h5.662
			c-0.503-0.824-0.695-2.655-0.695-4.522V15.491c0-4.876-4.883-5.783-8.939-5.783c-4.566,0-9.253,1.577-9.568,6.821H305.973z"/>
		<path fill="#FFFFFF" d="M326.816,24.001c0.039,2.444,2.087,3.421,4.293,3.421c1.63,0,3.669-0.623,3.669-2.589
			c0-1.698-2.325-2.284-6.343-3.143c-3.229-0.72-6.468-1.866-6.468-5.447c0-5.192,4.506-6.539,8.862-6.539
			c4.448,0,8.545,1.507,8.98,6.503h-5.312c-0.148-2.16-1.804-2.761-3.82-2.761c-1.26,0-3.107,0.247-3.107,1.897
			c0,2.008,3.151,2.287,6.335,3.014c3.27,0.758,6.461,1.935,6.461,5.719c0,5.349-4.641,7.102-9.288,7.102
			c-4.713,0-9.332-1.797-9.574-7.179L326.816,24.001L326.816,24.001z"/>
		<path fill="#FFFFFF" d="M347.219,24.001c0.038,2.444,2.1,3.421,4.296,3.421c1.615,0,3.658-0.623,3.658-2.589
			c0-1.698-2.315-2.284-6.338-3.143c-3.222-0.72-6.439-1.866-6.439-5.447c0-5.192,4.48-6.539,8.844-6.539
			c4.456,0,8.554,1.507,8.986,6.503h-5.323c-0.148-2.16-1.806-2.761-3.816-2.761c-1.268,0-3.097,0.247-3.097,1.897
			c0,2.008,3.131,2.287,6.331,3.014c3.247,0.758,6.446,1.935,6.446,5.719c0,5.349-4.642,7.102-9.286,7.102
			c-4.729,0-9.329-1.797-9.573-7.179L347.219,24.001L347.219,24.001z"/>
		<path fill="#FFFFFF" d="M375.983,22.738c0,1.24-0.159,4.686-4.529,4.686c-1.813,0-3.419-0.51-3.419-2.59
			c0-2.044,1.579-2.639,3.316-3.002c1.731-0.328,3.699-0.353,4.633-1.183L375.983,22.738L375.983,22.738z M368.667,16.529
			c0.188-2.213,1.567-3.08,3.711-3.08c1.95,0,3.606,0.354,3.606,2.76c0,2.292-3.18,2.152-6.602,2.674
			c-3.479,0.477-6.93,1.582-6.93,6.177c0,4.18,3.057,6.121,6.93,6.121c2.465,0,5.086-0.69,6.853-2.543
			c0.039,0.685,0.197,1.35,0.383,1.973h5.682c-0.518-0.824-0.718-2.655-0.718-4.522V15.491c0-4.876-4.884-5.783-8.945-5.783
			c-4.553,0-9.252,1.577-9.571,6.821H368.667z"/>
		<path fill="#FFFFFF" d="M385.188,10.262h5.298v2.831h0.127c1.416-2.279,3.854-3.389,6.221-3.389c5.934,0,7.438,3.349,7.438,8.398
			v12.505h-5.602V19.115c0-3.343-0.983-4.997-3.578-4.997c-3.037,0-4.321,1.692-4.321,5.82v10.669h-5.584L385.188,10.262
			L385.188,10.262z"/>
	</g>
</g>
<g id="Lager_2">
</g>
</svg>
