<svg width="31" height="31" viewBox="0 0 31 31" fill="none" xmlns="http://www.w3.org/2000/svg">
<rect x="0.5" y="0.583984" width="29.3535" height="29.3535" rx="1.5" fill="#297952" stroke="#297952"/>
<path d="M2.05096 3.13477C2.05096 2.58248 2.49868 2.13477 3.05096 2.13477H28.3026L20.5941 9.72098C20.407 9.90507 20.1551 10.0082 19.8926 10.0082H11.1384C10.5861 10.0082 10.1384 10.456 10.1384 11.0082V19.2062C10.1384 19.4746 10.0305 19.7317 9.839 19.9198L2.05096 27.5661V3.13477Z" fill="white"/>
<path d="M11.8954 12.9792C11.8954 12.427 12.3431 11.9792 12.8954 11.9792H19.7006C19.9564 11.9792 20.2026 12.0773 20.3883 12.2533L27.9904 19.4555C28.1898 19.6443 28.3027 19.9068 28.3027 20.1814V27.3865C28.3027 27.9388 27.855 28.3865 27.3027 28.3865H20.5132C20.248 28.3865 19.9937 28.2812 19.8061 28.0936L12.1883 20.4758C12.0007 20.2883 11.8954 20.0339 11.8954 19.7687V12.9792Z" fill="white"/>
</svg>
